<?xml version="1.0" encoding="UTF-8" standalone="no"?>
<!DOCTYPE svg PUBLIC "-//W3C//DTD SVG 1.1//EN" "http://www.w3.org/Graphics/SVG/1.1/DTD/svg11.dtd">
<svg width="100%" height="100%" viewBox="0 0 1200 550" version="1.1" xmlns="http://www.w3.org/2000/svg" xmlns:xlink="http://www.w3.org/1999/xlink" xml:space="preserve" xmlns:serif="http://www.serif.com/" style="fill-rule:evenodd;clip-rule:evenodd;stroke-linejoin:round;stroke-miterlimit:2;">
    <g transform="matrix(1,0,0,1,-3083.58,-3513.23)">
        <g id="Artboard1" transform="matrix(2.01573,0,0,1.00052,2939.05,4483.09)">
            <rect x="71.704" y="-969.355" width="595.317" height="549.714" style="fill:white;"/>
            <g transform="matrix(0.578107,0,0,1.1647,409.249,-700.162)">
                <path d="M0,-161.884L-148.915,-161.884C-153.366,-161.884 -156.987,-158.334 -156.984,-153.976L-156.984,-7.909C-156.987,-3.545 -153.366,0 -148.915,0L0,0C4.451,0 8.063,-3.545 8.063,-7.909L8.063,-153.976C8.063,-158.344 4.451,-161.884 0,-161.884M-9.919,-27.611C-10.344,-26.602 -11.34,-25.938 -12.454,-25.938L-33.972,-25.934C-34.692,-25.934 -35.388,-26.226 -35.905,-26.718L-107.865,-97.317L-107.865,-31.048L-97.779,-31.043L-97.779,-68.019C-97.779,-69.107 -97.118,-70.077 -96.087,-70.501C-95.07,-70.92 -93.887,-70.686 -93.109,-69.921L-52.8,-30.385C-52.696,-30.278 -52.602,-30.161 -52.52,-30.058C-51.071,-28.459 -50.186,-26.524 -50.002,-24.559C-49.798,-22.291 -50.571,-20.205 -52.119,-18.781C-52.646,-18.303 -53.317,-18.064 -53.983,-18.064C-54.719,-18.064 -55.452,-18.362 -55.986,-18.918C-57.018,-20.005 -56.961,-21.707 -55.852,-22.711C-55.141,-23.364 -55.345,-25.158 -56.687,-26.567C-56.744,-26.631 -56.807,-26.699 -56.856,-26.767L-92.302,-61.55L-92.302,-28.342C-92.302,-27.635 -92.59,-26.948 -93.109,-26.436C-93.619,-25.934 -94.32,-25.651 -95.043,-25.651L-95.053,-25.651L-110.599,-25.7C-112.115,-25.7 -113.342,-26.884 -113.342,-28.376L-113.342,-103.801C-113.342,-104.894 -112.666,-105.864 -111.647,-106.278C-110.623,-106.697 -109.445,-106.458 -108.665,-105.703L-32.841,-31.316L-19.055,-31.316L-62.021,-73.466C-62.227,-73.665 -62.398,-73.89 -62.52,-74.129C-63.823,-75.669 -64.33,-77.776 -63.919,-79.926C-63.529,-81.934 -62.384,-83.855 -60.694,-85.303C-59.555,-86.293 -57.826,-86.186 -56.826,-85.074C-55.823,-83.958 -55.932,-82.251 -57.068,-81.271C-58.546,-79.999 -58.929,-78.253 -58.288,-77.537C-58.154,-77.371 -58.047,-77.229 -57.95,-77.059L-10.52,-30.521C-9.73,-29.761 -9.501,-28.61 -9.919,-27.611M-10.133,-134.395C-11.206,-133.328 -12.926,-133.313 -14.02,-134.356C-14.71,-135.029 -16.525,-134.756 -17.909,-133.376C-17.931,-133.338 -17.966,-133.313 -17.996,-133.289L-68.557,-83.709C-69.621,-82.651 -71.341,-82.651 -72.414,-83.675L-83.27,-94.128C-83.79,-94.64 -84.083,-95.328 -84.088,-96.049C-84.088,-96.756 -83.804,-97.444 -83.29,-97.951L-43.938,-136.565L-57.766,-136.546L-90.507,-105.152C-91.576,-104.123 -93.296,-104.123 -94.36,-105.176L-124.228,-134.474L-124.228,-28.493C-124.228,-28.298 -124.253,-28.089 -124.298,-27.908C-124.265,-25.861 -124.839,-23.891 -125.933,-22.326C-127.24,-20.473 -129.198,-19.322 -131.311,-19.205C-131.366,-19.196 -131.42,-19.196 -131.478,-19.196C-132.914,-19.196 -134.122,-20.288 -134.214,-21.721C-134.298,-23.198 -133.153,-24.476 -131.639,-24.563C-130.665,-24.622 -129.661,-26.119 -129.78,-28.059C-129.8,-28.342 -129.77,-28.61 -129.706,-28.874L-129.706,-140.953C-129.706,-142.036 -129.035,-143.02 -128.01,-143.435C-126.984,-143.859 -125.819,-143.625 -125.031,-142.855L-92.401,-110.846L-60.798,-141.138C-60.281,-141.641 -59.598,-141.914 -58.889,-141.914L-37.322,-141.923C-36.218,-141.933 -35.214,-141.27 -34.789,-140.261C-34.374,-139.266 -34.608,-138.111 -35.378,-137.355L-77.464,-96.088L-70.516,-89.384L-21.724,-137.223C-21.689,-137.267 -21.639,-137.306 -21.582,-137.355C-20.044,-138.803 -18.125,-139.749 -16.145,-140.002C-13.858,-140.31 -11.683,-139.627 -10.175,-138.174C-9.099,-137.135 -9.074,-135.444 -10.133,-134.395" style="fill:rgb(0,1,1);fill-rule:nonzero;"/>
            </g>
            <g transform="matrix(0.479691,0,0,0.966425,322.87,-500.669)">
                <path d="M0,-20.097C-0.698,-20.097 -1.258,-19.546 -1.258,-18.844L-1.258,-18.381C-2.59,-19.57 -4.312,-20.351 -6.238,-20.351C-10.379,-20.351 -13.744,-17.045 -13.744,-12.988L-13.744,-7.108C-13.744,-3.047 -10.379,0.254 -6.238,0.254C-4.31,0.254 -2.587,-0.522 -1.258,-1.711L-1.258,-1.102C-1.258,-0.41 -0.698,0.146 0,0.146C0.701,0.146 1.275,-0.41 1.275,-1.102L1.275,-18.844C1.275,-19.546 0.701,-20.097 0,-20.097M-1.275,-7.108C-1.275,-4.422 -3.509,-2.248 -6.238,-2.248C-8.982,-2.248 -11.204,-4.422 -11.204,-7.108L-11.204,-12.988C-11.204,-15.675 -8.982,-17.859 -6.238,-17.859C-3.509,-17.859 -1.275,-15.675 -1.275,-12.988C-1.275,-12.935 -1.265,-12.886 -1.258,-12.832L-1.258,-7.274C-1.265,-7.221 -1.275,-7.162 -1.275,-7.108" style="fill:rgb(0,1,1);fill-rule:nonzero;"/>
            </g>
            <g transform="matrix(0.479691,0,0,0.966425,403.489,-500.669)">
                <path d="M0,-20.097C-0.703,-20.097 -1.26,-19.546 -1.26,-18.844L-1.26,-18.41C-2.587,-19.58 -4.287,-20.351 -6.213,-20.351C-10.342,-20.351 -13.707,-17.045 -13.707,-12.988L-13.707,-7.108C-13.707,-3.047 -10.342,0.254 -6.213,0.254C-4.29,0.254 -2.587,-0.517 -1.26,-1.687L-1.26,-1.102C-1.26,-0.41 -0.703,0.146 0,0.146C0.696,0.146 1.27,-0.41 1.27,-1.102L1.27,-18.844C1.27,-19.546 0.696,-20.097 0,-20.097M-6.213,-2.248C-8.942,-2.248 -11.177,-4.422 -11.177,-7.108L-11.177,-12.988C-11.177,-15.675 -8.942,-17.859 -6.213,-17.859C-3.517,-17.859 -1.315,-15.724 -1.26,-13.086L-1.26,-7.011C-1.315,-4.373 -3.517,-2.248 -6.213,-2.248" style="fill:rgb(0,1,1);fill-rule:nonzero;"/>
            </g>
            <g transform="matrix(0.479691,0,0,0.966425,360.867,-500.424)">
                <path d="M0,-30.038C-0.701,-30.038 -1.272,-29.468 -1.272,-28.785L-1.272,-18.673C-2.6,-19.838 -4.297,-20.604 -6.216,-20.604C-10.354,-20.604 -13.709,-17.298 -13.709,-13.242L-13.709,-7.362C-13.709,-3.3 -10.354,0 -6.216,0C-4.304,0 -2.6,-0.76 -1.272,-1.93L-1.272,-1.355C-1.272,-0.663 -0.701,-0.107 0,-0.107C0.696,-0.107 1.265,-0.663 1.265,-1.355L1.265,-28.785C1.265,-29.468 0.696,-30.038 0,-30.038M-6.216,-2.501C-8.957,-2.501 -11.179,-4.675 -11.179,-7.362L-11.179,-13.242C-11.179,-15.928 -8.957,-18.112 -6.216,-18.112C-3.527,-18.112 -1.347,-15.996 -1.272,-13.373L-1.272,-7.23C-1.347,-4.607 -3.527,-2.501 -6.216,-2.501" style="fill:rgb(0,1,1);fill-rule:nonzero;"/>
            </g>
            <g transform="matrix(0.479691,0,0,0.966425,421.718,-500.424)">
                <path d="M0,-30.038C-0.698,-30.038 -1.268,-29.468 -1.268,-28.785L-1.268,-18.634C-2.6,-19.824 -4.314,-20.604 -6.243,-20.604C-10.379,-20.604 -13.744,-17.298 -13.744,-13.242L-13.744,-7.362C-13.744,-3.3 -10.379,0 -6.243,0C-4.31,0 -2.6,-0.775 -1.268,-1.955L-1.268,-1.355C-1.268,-0.663 -0.698,-0.107 0,-0.107C0.701,-0.107 1.262,-0.663 1.262,-1.355L1.262,-28.785C1.262,-29.468 0.701,-30.038 0,-30.038M-1.287,-7.362C-1.287,-4.675 -3.504,-2.501 -6.243,-2.501C-8.982,-2.501 -11.204,-4.675 -11.204,-7.362L-11.204,-13.242C-11.204,-15.928 -8.982,-18.112 -6.243,-18.112C-3.504,-18.112 -1.287,-15.928 -1.287,-13.242C-1.287,-13.217 -1.268,-13.203 -1.268,-13.178L-1.268,-7.42L-1.287,-7.362Z" style="fill:rgb(0,1,1);fill-rule:nonzero;"/>
            </g>
            <g transform="matrix(0.479691,0,0,0.966425,339.334,-500.528)">
                <path d="M0,-20.497C-1.916,-20.497 -3.614,-19.726 -4.938,-18.556L-4.938,-18.99C-4.938,-19.693 -5.502,-20.243 -6.203,-20.243C-6.899,-20.243 -7.476,-19.693 -7.476,-18.99L-7.476,-1.248C-7.476,-0.556 -6.899,0 -6.203,0C-5.502,0 -4.938,-0.556 -4.938,-1.248L-4.938,-13.208C-4.896,-15.855 -2.699,-18.006 0,-18.006C2.744,-18.006 4.966,-15.821 4.966,-13.135L4.966,-1.326C4.966,-0.624 5.53,-0.078 6.248,-0.078C6.944,-0.078 7.503,-0.624 7.503,-1.326L7.503,-13.135C7.503,-17.191 4.148,-20.497 0,-20.497" style="fill:rgb(0,1,1);fill-rule:nonzero;"/>
            </g>
            <g transform="matrix(0.479691,0,0,0.966425,300.736,-508.839)">
                <path d="M0,-11.897C-1.929,-11.897 -3.636,-11.117 -4.966,-9.932L-4.966,-19.259C-4.966,-19.937 -5.537,-20.497 -6.238,-20.497C-6.937,-20.497 -7.511,-19.937 -7.511,-19.259L-7.511,7.352C-7.511,8.044 -6.937,8.6 -6.238,8.6C-5.537,8.6 -4.966,8.044 -4.966,7.352L-4.966,-4.496C-4.966,-4.496 -4.961,-4.52 -4.961,-4.535C-4.961,-7.221 -2.731,-9.406 0,-9.406C2.746,-9.406 4.966,-7.221 4.966,-4.535L4.966,7.274C4.966,7.976 5.547,8.522 6.238,8.522C6.939,8.522 7.496,7.976 7.496,7.274L7.496,-4.535C7.496,-8.591 4.138,-11.897 0,-11.897" style="fill:rgb(0,1,1);fill-rule:nonzero;"/>
            </g>
            <g transform="matrix(0.479691,0,0,0.966425,382.153,-500.288)">
                <path d="M0,-20.872C-2.075,-20.872 -3.89,-19.853 -5.03,-18.317C-6.174,-19.829 -7.913,-20.872 -9.969,-20.872C-11.435,-20.872 -12.762,-20.341 -13.828,-19.507C-13.965,-20.058 -14.387,-20.492 -14.989,-20.492C-15.675,-20.492 -16.254,-19.941 -16.254,-19.239L-16.254,-1.497C-16.254,-0.804 -15.675,-0.248 -14.989,-0.248C-14.281,-0.248 -13.717,-0.804 -13.717,-1.497L-13.717,-14.641C-13.714,-14.67 -13.697,-14.69 -13.697,-14.69C-13.697,-16.747 -12.024,-18.385 -9.969,-18.385C-7.923,-18.385 -6.241,-16.747 -6.241,-14.714L-6.241,-1.74C-6.241,-1.053 -5.674,-0.497 -4.976,-0.497C-4.275,-0.497 -3.711,-1.053 -3.711,-1.74L-3.711,-14.714C-3.711,-14.738 -3.726,-14.758 -3.726,-14.787C-3.683,-16.786 -2.036,-18.385 0,-18.385C2.045,-18.385 3.72,-16.747 3.72,-14.714L3.72,-1.243C3.72,-0.551 4.277,0 4.983,0C5.691,0 6.248,-0.551 6.248,-1.243L6.248,-14.714C6.248,-18.112 3.439,-20.872 0,-20.872" style="fill:rgb(0,1,1);fill-rule:nonzero;"/>
            </g>
            <g transform="matrix(0.479691,0,0,0.966425,437.538,-500.745)">
                <path d="M0,-20.599C-4.146,-20.599 -7.491,-17.308 -7.491,-13.242L-7.491,-7.352C-7.491,-3.296 -4.146,0 0,0C3.46,0 6.457,-2.301 7.282,-5.597C7.451,-6.275 7.033,-6.943 6.347,-7.108C5.664,-7.269 4.986,-6.859 4.812,-6.196C4.27,-4.012 2.287,-2.496 0,-2.496C-2.741,-2.496 -4.961,-4.675 -4.961,-7.352L-4.961,-10.18L6.223,-10.18C6.922,-10.18 7.501,-10.736 7.501,-11.428L7.501,-13.242C7.501,-17.308 4.131,-20.599 0,-20.599M4.953,-12.666L-4.961,-12.666L-4.961,-13.242C-4.961,-15.918 -2.741,-18.108 0,-18.108C2.734,-18.108 4.953,-15.918 4.953,-13.242L4.953,-12.666Z" style="fill:rgb(0,1,1);fill-rule:nonzero;"/>
            </g>
            <g transform="matrix(0.479691,0,0,0.966425,298.638,-650.29)">
                <path d="M0,111.246C1.628,111.246 2.948,109.973 2.948,108.374L2.948,2.886C2.948,1.292 1.628,0 0,0C-1.63,0 -2.95,1.292 -2.95,2.886L-2.95,108.374C-2.95,109.973 -1.63,111.246 0,111.246" style="fill:rgb(0,1,1);fill-rule:nonzero;"/>
            </g>
            <g transform="matrix(0.479691,0,0,0.966425,305.138,-585.487)">
                <path d="M0,-23.203L33.241,-62.31C34.285,-63.539 34.108,-65.357 32.871,-66.376C31.611,-67.41 29.754,-67.239 28.715,-66.006L-5.88,-25.314C-6.69,-24.354 -6.785,-22.998 -6.134,-21.935L34.402,42.822C34.958,43.714 35.925,44.207 36.917,44.207C37.446,44.192 37.976,44.07 38.458,43.773C39.84,42.939 40.282,41.164 39.422,39.809L0,-23.203Z" style="fill:rgb(0,1,1);fill-rule:nonzero;"/>
            </g>
            <g transform="matrix(0.479691,0,0,0.966425,372.078,-542.473)">
                <path d="M0,-72.563C-1.63,-72.563 -2.948,-71.271 -2.948,-69.667L-2.948,-67.317C-6.606,-70.954 -11.658,-73.241 -17.273,-73.241C-28.382,-73.241 -37.448,-64.362 -37.448,-53.465L-37.448,-19.127C-37.448,-8.22 -28.382,0.678 -17.273,0.678C-14.119,0.678 -11.109,-0.019 -8.321,-1.38C-6.869,-2.087 -6.268,-3.817 -6.994,-5.261C-7.714,-6.675 -9.491,-7.264 -10.943,-6.553C-12.909,-5.597 -15.041,-5.105 -17.273,-5.105C-25.139,-5.105 -31.549,-11.394 -31.549,-19.127L-31.549,-53.465C-31.549,-61.183 -25.139,-67.468 -17.273,-67.468C-9.618,-67.468 -3.36,-61.549 -3,-54.124C-2.985,-54.138 -2.962,-54.148 -2.948,-54.167L-2.948,-2.496C-2.948,-0.907 -1.63,0.4 0,0.4C1.625,0.4 2.948,-0.907 2.948,-2.496L2.948,-69.667C2.948,-71.271 1.625,-72.563 0,-72.563" style="fill:rgb(0,1,1);fill-rule:nonzero;"/>
            </g>
            <g transform="matrix(0.479691,0,0,0.966425,401.819,-594.114)">
                <path d="M0,34.309C0,32.725 -1.317,31.428 -2.938,31.428C-4.558,31.428 -5.88,32.725 -5.88,34.309C-5.88,38.068 -7.372,41.569 -10.068,44.221C-12.77,46.873 -16.358,48.331 -20.171,48.331C-28.039,48.331 -34.441,42.042 -34.441,34.309L-34.441,-0.03C-34.441,-7.748 -28.039,-14.032 -20.171,-14.032C-12.287,-14.032 -5.88,-7.748 -5.88,-0.03L-5.88,12.949L-27.125,12.949C-28.758,12.949 -30.072,14.241 -30.072,15.845C-30.072,17.435 -28.758,18.727 -27.125,18.727L-2.938,18.727C-1.317,18.727 0,17.435 0,15.845L0.01,-0.03C0,-10.927 -9.042,-19.805 -20.171,-19.805C-31.283,-19.805 -40.339,-10.927 -40.339,-0.03L-40.339,34.309C-40.339,45.216 -31.283,54.114 -20.171,54.114C-14.778,54.114 -9.718,52.051 -5.895,48.287C-2.093,44.562 0,39.589 0,34.309" style="fill:rgb(0,1,1);fill-rule:nonzero;"/>
            </g>
            <g transform="matrix(0.479691,0,0,0.966425,441.592,-573.491)">
                <path d="M0,-48.473C0,-66.532 -14.987,-81.227 -33.403,-81.227C-51.809,-81.227 -66.795,-66.532 -66.795,-48.473L-66.795,-0.01C-66.795,18.054 -51.809,32.754 -33.403,32.754C-18.12,32.754 -4.809,22.608 -1.044,8.118C-0.646,6.562 -1.591,4.997 -3.176,4.598C-4.747,4.207 -6.348,5.139 -6.755,6.684C-9.857,18.63 -20.817,26.976 -33.403,26.976C-48.568,26.976 -60.9,14.866 -60.9,-0.01L-60.9,-48.473C-60.9,-63.343 -48.568,-75.445 -33.403,-75.445C-18.24,-75.445 -5.905,-63.343 -5.888,-48.414L-6.05,-2.843C-6.015,-1.238 -4.654,0.054 -3.053,-0.01C-1.423,-0.034 -0.12,-1.36 -0.15,-2.95L0,-48.473Z" style="fill:rgb(0,1,1);fill-rule:nonzero;"/>
            </g>
            <g transform="matrix(0.479691,0,0,0.966425,331.231,-542.284)">
                <path d="M0,-72.944C-1.638,-72.944 -2.945,-71.647 -2.945,-70.043L-2.945,-2.887C-2.945,-1.298 -1.638,0 0,0C1.63,0 2.95,-1.298 2.95,-2.887L2.95,-70.043C2.95,-71.647 1.63,-72.944 0,-72.944" style="fill:rgb(0,1,1);fill-rule:nonzero;"/>
            </g>
            <g transform="matrix(0.479691,0,0,0.966425,339.51,-591.542)">
                <path d="M0,-22.671C-3.132,-22.671 -6.156,-21.974 -8.957,-20.614C-10.418,-19.902 -11.008,-18.147 -10.299,-16.733C-9.563,-15.299 -7.796,-14.719 -6.34,-15.426C-4.364,-16.396 -2.227,-16.889 0,-16.889C7.878,-16.889 14.293,-10.604 14.293,-2.867C14.293,-1.282 15.61,0 17.243,0C18.858,0 20.171,-1.282 20.171,-2.867C20.171,-13.778 11.119,-22.671 0,-22.671" style="fill:rgb(0,1,1);fill-rule:nonzero;"/>
            </g>
        </g>
    </g>
</svg>
