<?xml version="1.0" encoding="UTF-8" standalone="no"?>
<!DOCTYPE svg PUBLIC "-//W3C//DTD SVG 1.1//EN" "http://www.w3.org/Graphics/SVG/1.1/DTD/svg11.dtd">
<svg width="100%" height="100%" viewBox="0 0 1200 341" version="1.1" xmlns="http://www.w3.org/2000/svg" xmlns:xlink="http://www.w3.org/1999/xlink" xml:space="preserve" xmlns:serif="http://www.serif.com/" style="fill-rule:evenodd;clip-rule:evenodd;stroke-linejoin:round;stroke-miterlimit:2;">
    <g id="Artboard1" transform="matrix(2.01573,0,0,0.619831,-144.536,600.836)">
        <rect x="71.704" y="-969.355" width="595.317" height="549.714"/>
        <g transform="matrix(0.61279,-2.94767e-31,6.04266e-32,1.99283,56.3007,-997.021)">
            <g transform="matrix(1.21435,0,0,1.21435,357.676,126.097)">
                <path d="M0,34.942C-9.629,34.942 -17.462,27.116 -17.462,17.473C-17.462,7.839 -9.629,0 0,0C9.634,0 17.483,7.839 17.483,17.473C17.483,27.116 9.634,34.942 0,34.942M0,1.683C-8.701,1.683 -15.787,8.767 -15.787,17.473C-15.787,26.179 -8.701,33.282 0,33.282C8.713,33.282 15.794,26.179 15.794,17.473C15.794,8.767 8.713,1.683 0,1.683" style="fill:white;fill-rule:nonzero;"/>
            </g>
            <g transform="matrix(1.21435,0,0,1.21435,336.044,128.759)">
                <path d="M0,44.686L9.738,44.686L9.738,0L2.852,6.718L0,16.46L0,44.686Z" style="fill:white;fill-rule:nonzero;"/>
            </g>
            <g transform="matrix(-0.884385,-0.832164,-0.832164,0.884385,359.28,136.548)">
                <rect x="-38.144" y="15.117" width="44.811" height="1.679" style="fill:white;"/>
            </g>
            <g transform="matrix(1.0103,0.673746,0.673746,-1.0103,343.14,126.173)">
                <path d="M-4.786,-3.355L2.776,-3.355L11.078,-15.804L5.844,-19.295L-4.786,-3.355Z" style="fill:white;fill-rule:nonzero;"/>
            </g>
            <g transform="matrix(1.21435,0,0,1.21435,761.722,124.681)">
                <path d="M0,48.149C-6.429,48.149 -12.478,45.647 -17.024,41.099C-21.572,36.55 -24.072,30.494 -24.072,24.077C-24.072,17.64 -21.572,11.603 -17.024,7.046C-12.478,2.498 -6.429,0 0,0C6.432,0 12.483,2.498 17.029,7.046C21.57,11.603 24.074,17.64 24.074,24.077C24.074,30.494 21.57,36.55 17.029,41.099C12.483,45.647 6.432,48.149 0,48.149M0,1.674C-12.355,1.674 -22.395,11.722 -22.395,24.077C-22.395,36.422 -12.355,46.474 0,46.474C12.352,46.474 22.4,36.422 22.4,24.077C22.4,11.722 12.352,1.674 0,1.674" style="fill:white;fill-rule:nonzero;"/>
            </g>
            <g transform="matrix(1.21435,0,0,1.21435,734.654,161.892)">
                <path d="M0,-12.104L4.286,-20.924L8.444,-24.701L8.444,12.597L3.354,8.053L-0.756,-0.762L-1.746,-6.462L0,-12.104Z" style="fill:white;fill-rule:nonzero;"/>
            </g>
            <g transform="matrix(1.21435,0,0,1.21435,788.695,161.892)">
                <path d="M0,-12.104L-4.289,-20.924L-8.444,-24.701L-8.444,12.597L-3.352,8.053L0.749,-0.762L1.744,-6.462L0,-12.104Z" style="fill:white;fill-rule:nonzero;"/>
            </g>
            <g transform="matrix(1.21435,0,0,1.21435,287.401,125.363)">
                <path d="M0,47.925C-6.406,47.925 -12.417,45.427 -16.946,40.908C-21.465,36.374 -23.965,30.371 -23.965,23.977C-23.965,17.564 -21.465,11.546 -16.946,7.022C-12.417,2.493 -6.406,0 0,0C2.759,0 5.457,0.457 8.016,1.384C10.514,2.274 12.821,3.549 14.893,5.195L13.849,6.517C9.876,3.349 5.086,1.684 0,1.684C-12.288,1.684 -22.279,11.675 -22.279,23.977C-22.279,36.256 -12.288,46.246 0,46.246C12.286,46.246 22.276,36.256 22.276,23.977C22.276,23.163 22.231,22.355 22.15,21.565L23.832,21.384C23.91,22.226 23.96,23.106 23.96,23.977C23.96,30.371 21.46,36.374 16.936,40.908C12.419,45.427 6.396,47.925 0,47.925" style="fill:white;fill-rule:nonzero;"/>
            </g>
            <g transform="matrix(1.21435,0,0,1.21435,260.457,161.892)">
                <path d="M0,-12.104L4.279,-20.924L8.439,-24.701L8.439,12.597L3.349,8.053L-0.759,-0.762L-1.751,-6.462L0,-12.104Z" style="fill:white;fill-rule:nonzero;"/>
            </g>
            <g transform="matrix(1.21435,0,0,1.21435,315.674,177.189)">
                <path d="M0,-20.752L-9.667,-20.752L-9.667,0L-4.567,-4.544L-0.469,-13.359L0.526,-19.059L0,-20.752Z" style="fill:white;fill-rule:nonzero;"/>
            </g>
            <g transform="matrix(-1.21435,0,0,1.21435,824.09,-6589.95)">
                <rect x="418.026" y="5550.91" width="19.407" height="1.68" style="fill:white;"/>
            </g>
            <g transform="matrix(1.21435,0,0,1.21435,414.147,183.179)">
                <path d="M0,-47.15L10.19,-47.15L29.519,0L19.324,0L0,-47.15Z" style="fill:white;fill-rule:nonzero;"/>
            </g>
            <g transform="matrix(-1.21435,0,0,1.21435,1051.89,-6589.95)">
                <rect x="511.822" y="5550.91" width="19.407" height="1.68" style="fill:white;"/>
            </g>
            <g transform="matrix(-1.1576,-0.366885,-0.366885,1.1576,422.418,129.707)">
                <path d="M5.884,48.217L7.569,48.217L7.447,-0.914L5.769,-0.897L5.884,48.217Z" style="fill:white;fill-rule:nonzero;"/>
            </g>
            <g transform="matrix(1.21435,0,0,1.21435,-214.732,-6585.24)">
                <rect x="727.566" y="5526.25" width="10.19" height="47.126" style="fill:white;"/>
            </g>
            <g transform="matrix(-1.21435,0,0,1.21435,1603.8,-6589.95)">
                <rect x="734.45" y="5550.91" width="28.644" height="1.68" style="fill:white;"/>
            </g>
            <g transform="matrix(-1.21435,0,0,1.21435,1638.69,-6584.75)">
                <rect x="762.297" y="5526.04" width="1.679" height="47.141" style="fill:white;"/>
            </g>
            <g transform="matrix(1.21435,0,0,1.21435,-214.732,-6585.24)">
                <rect x="902.838" y="5526.25" width="10.188" height="47.126" style="fill:white;"/>
            </g>
            <g transform="matrix(-1.21435,0,0,1.21435,2021.32,-6589.95)">
                <rect x="909.714" y="5550.91" width="21.934" height="1.68" style="fill:white;"/>
            </g>
            <g transform="matrix(-1.54462,-4.88524e-32,3.25682e-32,1.21435,2325.85,-6640.54)">
                <rect x="909.715" y="5571.74" width="25.285" height="1.68" style="fill:white;"/>
            </g>
            <g transform="matrix(-1.21435,0,-2.65884e-47,1.21435,2025.39,-6530.07)">
                <rect x="909.715" y="5526.26" width="25.285" height="1.684" style="fill:white;"/>
            </g>
            <g transform="matrix(1.21435,0,0,1.21435,556.268,183.179)">
                <path d="M0,-47.15L10.193,-47.15L29.517,0L19.324,0L0,-47.15Z" style="fill:white;fill-rule:nonzero;"/>
            </g>
            <g transform="matrix(-1.21435,0,0,1.21435,1336.15,-6589.95)">
                <rect x="628.868" y="5550.91" width="19.398" height="1.68" style="fill:white;"/>
            </g>
            <g transform="matrix(-1.15727,-0.367925,-0.367925,1.15727,564.575,129.724)">
                <path d="M5.874,48.218L7.554,48.218L7.485,-0.91L5.796,-0.898L5.874,48.218Z" style="fill:white;fill-rule:nonzero;"/>
            </g>
            <g transform="matrix(0.782213,0.928858,0.928858,-0.782213,832.561,130.981)">
                <path d="M-16.211,-12.281L-0.394,-12.281L26.399,-34.845L19.836,-42.637L-16.211,-12.281Z" style="fill:white;fill-rule:nonzero;"/>
            </g>
            <g transform="matrix(-0.818522,-0.897026,-0.897026,0.818522,869.261,130.257)">
                <path d="M-25.946,35.692L-10.818,35.692L15.749,11.449L8.876,3.917L-25.946,35.692Z" style="fill:white;fill-rule:nonzero;"/>
            </g>
            <g transform="matrix(-0.822422,-0.893451,-0.893451,0.822422,837.642,116.346)">
                <path d="M-51.855,24.432L8.77,24.432L10.718,22.747L-49.731,22.75L-51.855,24.432Z" style="fill:white;fill-rule:nonzero;"/>
            </g>
            <g transform="matrix(1.21435,0,0,1.21435,631.372,126.097)">
                <path d="M0,34.942C-9.631,34.942 -17.474,27.116 -17.474,17.473C-17.474,7.839 -9.631,0 0,0C9.629,0 17.476,7.839 17.476,17.473C17.476,27.116 9.629,34.942 0,34.942M0,1.683C-8.706,1.683 -15.797,8.767 -15.797,17.473C-15.797,26.179 -8.706,33.282 0,33.282C8.711,33.282 15.792,26.179 15.792,17.473C15.792,8.767 8.711,1.683 0,1.683" style="fill:white;fill-rule:nonzero;"/>
            </g>
            <g transform="matrix(1.21435,0,0,1.21435,609.622,128.759)">
                <path d="M0,44.686L9.743,44.686L9.743,0L2.857,6.718L0,16.46L0,44.686Z" style="fill:white;fill-rule:nonzero;"/>
            </g>
            <g transform="matrix(1.01047,0.673486,0.673486,-1.01047,616.714,126.215)">
                <path d="M-4.782,-3.356L2.793,-3.356L11.085,-15.797L5.84,-19.293L-4.782,-3.356Z" style="fill:white;fill-rule:nonzero;"/>
            </g>
            <g transform="matrix(0.906763,0.807722,0.807722,-0.906763,488.99,128.662)">
                <path d="M-14.382,-9.357L-0.736,-9.357L24.572,-37.769L16.963,-44.547L-14.382,-9.357Z" style="fill:white;fill-rule:nonzero;"/>
            </g>
            <g transform="matrix(-0.906566,0.807943,0.807943,0.906566,527.962,179.619)">
                <path d="M-24.572,-37.766L-10.929,-37.766L14.387,-9.36L6.783,-2.584L-24.572,-37.766Z" style="fill:white;fill-rule:nonzero;"/>
            </g>
            <g transform="matrix(1.21435,0,0,1.21435,494.035,125.49)">
                <path d="M0,19.295L-21.001,2.202L-21.061,0L0,17.126L21.142,0L21.027,2.269L0,19.295Z" style="fill:white;fill-rule:nonzero;"/>
            </g>
        </g>
        <g transform="matrix(0.703707,0,0,2.2885,156.271,-571.467)">
            <path d="M0,-107.521C-29.691,-107.521 -53.775,-83.459 -53.775,-53.772C-53.775,-24.082 -29.691,0 0,0C29.683,0 53.765,-24.082 53.765,-53.772C53.765,-83.459 29.683,-107.521 0,-107.521M-29.817,-61.57L-29.817,-60.233C-29.817,-59.467 -30.423,-58.882 -31.156,-58.882L-31.513,-58.882L-31.579,-58.368C-31.579,-54.472 -29.947,-53.354 -29.415,-53.092L-5.932,-53.615C-5.709,-54.02 -5.438,-54.372 -5.1,-54.7C-5.19,-54.881 -5.247,-55.109 -5.247,-55.323C-5.247,-56.213 -4.529,-56.932 -3.649,-56.932C-2.907,-56.932 -2.288,-56.417 -2.098,-55.732C-0.031,-55.576 1.606,-53.849 1.606,-51.75C1.606,-51.032 1.43,-50.386 1.108,-49.824C1.22,-49.615 1.28,-49.405 1.294,-49.177C9.952,-49.006 16.679,-47.807 16.679,-46.342C16.679,-46.237 16.655,-46.146 16.596,-46.065L16.613,-46.065L16.613,-44.558L20.694,-40.447L20.694,-40.428C20.83,-40.319 20.916,-40.128 20.916,-39.924C20.916,-39.529 20.614,-39.229 20.233,-39.229C20.233,-39.229 18.891,-39.396 18.891,-38.549L18.872,-38.559L18.872,-34.738L24.574,-24.867L24.552,-24.867L25.678,-22.945L27.412,-19.934L-19.41,-19.934L-27.995,-33.054L-25.837,-34.458C-31.146,-36.161 -31.736,-38.816 -32.036,-41.228C-32.331,-43.648 -33.09,-45.309 -35.965,-47.569C-38.837,-49.838 -38.837,-53.011 -38.837,-53.011L-38.837,-63.173C-38.839,-63.207 -38.853,-63.244 -38.853,-63.263C-38.853,-63.696 -38.501,-64.039 -38.075,-64.039L-36.817,-64.039C-36.389,-64.039 -36.056,-63.715 -36.053,-63.292L-34.681,-63.292C-34.531,-66.113 -31.724,-67.165 -31.289,-67.307L-31.303,-67.336L13.251,-83.301C13.251,-83.301 15.744,-83.753 18.449,-87.944C21.184,-92.136 23.092,-92.587 24.909,-90.228C26.722,-87.83 30.813,-83.301 30.813,-69.719C30.813,-56.109 25.49,-50.224 23.558,-50.314C21.634,-50.438 20.271,-51.584 19.248,-53.045C18.23,-54.529 17.44,-55.761 12.907,-56.68C8.37,-57.579 -30.713,-64.153 -30.713,-64.153L-30.894,-62.902C-30.281,-62.773 -29.817,-62.245 -29.817,-61.57" style="fill:white;fill-rule:nonzero;"/>
        </g>
    </g>
</svg>
