<?xml version="1.0" encoding="UTF-8" standalone="no"?>
<!DOCTYPE svg PUBLIC "-//W3C//DTD SVG 1.1//EN" "http://www.w3.org/Graphics/SVG/1.1/DTD/svg11.dtd">
<svg width="100%" height="100%" viewBox="0 0 1200 550" version="1.1" xmlns="http://www.w3.org/2000/svg" xmlns:xlink="http://www.w3.org/1999/xlink" xml:space="preserve" xmlns:serif="http://www.serif.com/" style="fill-rule:evenodd;clip-rule:evenodd;stroke-linejoin:round;stroke-miterlimit:2;">
    <g transform="matrix(1,0,0,1,-3083.58,-1389.34)">
        <g id="Artboard1" transform="matrix(2.01573,0,0,1.00052,2939.05,2359.2)">
            <rect x="71.704" y="-969.355" width="595.317" height="549.714"/>
            <g transform="matrix(0.653928,0,0,1.31746,355.675,-867.053)">
                <path d="M0,147.816C-1.317,147.816 -2.578,147.496 -3.689,146.862C-5.917,145.584 -7.321,143.164 -7.548,140.217L-8.429,128.784C-8.668,125.721 -11.476,122.939 -14.561,122.702L-26.084,121.825C-29.053,121.6 -31.49,120.207 -32.781,117.997C-34.065,115.79 -34.065,112.997 -32.781,110.333L-27.792,99.992C-26.454,97.222 -27.485,93.41 -30.039,91.673L-39.56,85.192C-42.015,83.521 -43.423,81.099 -43.423,78.551C-43.423,76.001 -42.015,73.577 -39.56,71.911L-30.039,65.428C-27.485,63.691 -26.454,59.879 -27.792,57.106L-32.781,46.768C-34.065,44.101 -34.065,41.309 -32.781,39.101C-31.49,36.894 -29.056,35.498 -26.084,35.276L-14.561,34.398C-11.476,34.162 -8.668,31.378 -8.429,28.317L-7.548,16.884C-7.321,13.937 -5.917,11.516 -3.689,10.242C-1.467,8.965 1.353,8.962 4.035,10.239L14.453,15.185C17.249,16.51 21.09,15.49 22.84,12.957L29.375,3.511C31.053,1.073 33.497,-0.317 36.065,-0.317C38.634,-0.317 41.077,1.073 42.762,3.511L49.291,12.957C51.041,15.49 54.882,16.51 57.678,15.185L68.096,10.239C70.784,8.965 73.598,8.965 75.82,10.242C78.048,11.516 79.452,13.937 79.679,16.884L80.563,28.317C80.802,31.378 83.609,34.162 86.692,34.398L98.215,35.276C101.184,35.498 103.628,36.894 104.912,39.101C106.196,41.309 106.196,44.101 104.912,46.768L99.923,57.106C98.591,59.879 99.619,63.688 102.17,65.428L111.691,71.911C114.147,73.577 115.556,76.001 115.556,78.551C115.556,81.099 114.147,83.521 111.691,85.192L102.17,91.673C99.619,93.41 98.591,97.222 99.923,99.995L104.912,110.333C106.196,112.997 106.196,115.79 104.912,117.997C103.628,120.207 101.184,121.6 98.215,121.825L86.692,122.702C83.609,122.939 80.802,125.721 80.563,128.784L79.679,140.217C79.452,143.164 78.048,145.584 75.82,146.862C73.598,148.133 70.784,148.133 68.096,146.862L57.678,141.913C56.358,141.287 55.802,139.722 56.435,138.416C57.063,137.106 58.64,136.552 59.96,137.179L70.378,142.125C71.483,142.651 72.475,142.718 73.174,142.316C73.878,141.913 74.315,141.026 74.404,139.817L75.288,128.383C75.718,122.791 80.659,117.899 86.291,117.474L97.815,116.594C99.034,116.499 99.923,116.066 100.33,115.37C100.736,114.676 100.67,113.69 100.139,112.597L95.156,102.259C92.719,97.204 94.523,90.512 99.177,87.346L108.698,80.862C109.708,80.177 110.27,79.354 110.27,78.551C110.27,77.744 109.708,76.924 108.698,76.236L99.177,69.755C94.523,66.583 92.719,59.897 95.156,54.845L100.139,44.504C100.67,43.408 100.736,42.425 100.33,41.728C99.923,41.035 99.034,40.599 97.815,40.506L86.291,39.629C80.653,39.202 75.718,34.307 75.288,28.717L74.404,17.281C74.315,16.072 73.878,15.185 73.174,14.783C72.481,14.383 71.483,14.453 70.378,14.972L59.96,19.918C54.864,22.336 48.121,20.546 44.93,15.926L38.395,6.479C37.703,5.476 36.878,4.929 36.065,4.929C35.253,4.929 34.423,5.476 33.73,6.479L27.2,15.926C24.011,20.546 17.267,22.336 12.171,19.918L1.753,14.972C0.648,14.448 -0.344,14.383 -1.043,14.783C-1.741,15.185 -2.178,16.072 -2.276,17.281L-3.157,28.717C-3.59,34.307 -8.525,39.199 -14.155,39.629L-25.678,40.506C-26.899,40.599 -27.792,41.035 -28.199,41.728C-28.605,42.425 -28.536,43.408 -28.011,44.504L-23.023,54.845C-20.588,59.897 -22.393,66.586 -27.049,69.755L-36.568,76.236C-37.577,76.924 -38.133,77.744 -38.133,78.551C-38.133,79.354 -37.577,80.177 -36.568,80.862L-27.049,87.346C-22.393,90.512 -20.588,97.204 -23.023,102.259L-28.008,112.597C-28.536,113.693 -28.605,114.676 -28.199,115.373C-27.792,116.066 -26.899,116.499 -25.678,116.594L-14.155,117.474C-8.525,117.899 -3.59,122.791 -3.157,128.383L-2.276,139.817C-2.178,141.026 -1.741,141.913 -1.043,142.316C-0.344,142.718 0.648,142.651 1.753,142.125L12.171,137.179C13.491,136.552 15.068,137.106 15.698,138.416C16.329,139.722 15.773,141.287 14.453,141.913L4.035,146.862C2.694,147.496 1.32,147.816 0,147.816" style="fill:white;fill-rule:nonzero;"/>
            </g>
            <g transform="matrix(0.653928,0,0,1.31746,395.201,-832.197)">
                <path d="M0,98.589C-1.254,98.589 -2.868,98.127 -4.808,96.616L-10.8,91.937C-11.947,91.041 -12.15,89.394 -11.248,88.253C-10.346,87.118 -8.679,86.916 -7.533,87.817L-1.541,92.487C-1.123,92.814 -0.782,93.024 -0.52,93.152C-0.502,92.867 -0.513,92.467 -0.591,91.945L-1.679,84.454C-2.103,81.54 -1.272,78.807 0.603,76.947C2.473,75.091 5.233,74.262 8.166,74.683L15.716,75.766C16.242,75.844 16.643,75.856 16.935,75.835C16.804,75.58 16.595,75.24 16.266,74.822L11.553,68.876C9.725,66.565 9.068,63.782 9.749,61.242C10.436,58.699 12.408,56.616 15.155,55.525L22.234,52.709C22.73,52.511 23.088,52.325 23.327,52.162C23.088,52.002 22.73,51.812 22.234,51.61L15.155,48.799C12.408,47.704 10.436,45.622 9.749,43.082C9.068,40.536 9.725,37.756 11.553,35.447L16.266,29.499C16.595,29.084 16.804,28.744 16.935,28.488C16.643,28.471 16.242,28.483 15.716,28.556L8.166,29.641C5.233,30.059 2.473,29.232 0.603,27.374C-1.272,25.513 -2.103,22.781 -1.679,19.87L-0.591,12.376C-0.513,11.853 -0.502,11.456 -0.52,11.169C-0.777,11.3 -1.117,11.51 -1.541,11.832L-7.533,16.51C-9.863,18.326 -12.664,18.978 -15.227,18.297C-17.79,17.616 -19.886,15.662 -20.992,12.936L-23.823,5.914C-24.02,5.416 -24.217,5.067 -24.378,4.828C-24.54,5.067 -24.731,5.416 -24.928,5.914L-27.765,12.936C-28.871,15.662 -30.967,17.616 -33.53,18.297C-36.092,18.978 -38.894,18.326 -41.224,16.51L-47.216,11.832C-47.633,11.51 -47.977,11.3 -48.237,11.172C-48.255,11.456 -48.243,11.857 -48.165,12.381L-47.075,19.87C-46.651,22.781 -47.484,25.513 -49.357,27.374C-51.23,29.232 -53.987,30.062 -56.923,29.641L-64.473,28.563C-64.999,28.483 -65.399,28.473 -65.692,28.488C-65.561,28.744 -65.352,29.084 -65.023,29.499L-60.31,35.447C-58.476,37.756 -57.819,40.536 -58.509,43.082C-59.192,45.622 -61.161,47.708 -63.912,48.799L-70.988,51.613C-71.487,51.812 -71.839,52.002 -72.083,52.162C-71.839,52.325 -71.487,52.511 -70.988,52.709L-63.912,55.525C-61.164,56.616 -59.192,58.699 -58.509,61.242C-57.819,63.782 -58.476,66.565 -60.31,68.876L-65.023,74.822C-65.352,75.24 -65.561,75.58 -65.692,75.835C-65.399,75.856 -64.999,75.844 -64.473,75.766L-56.923,74.683C-53.987,74.262 -51.23,75.091 -49.357,76.947C-47.484,78.807 -46.651,81.54 -47.075,84.454L-48.165,91.945C-48.243,92.467 -48.255,92.867 -48.237,93.152C-47.977,93.024 -47.633,92.814 -47.216,92.487L-41.224,87.817C-40.077,86.916 -38.411,87.118 -37.511,88.253C-36.607,89.394 -36.81,91.041 -37.956,91.937L-43.948,96.613C-47.455,99.349 -49.91,98.653 -51.056,97.993C-52.203,97.336 -54.041,95.576 -53.404,91.193L-52.311,83.701C-52.123,82.427 -52.401,81.344 -53.094,80.657C-53.786,79.969 -54.879,79.691 -56.164,79.874L-63.714,80.959C-68.135,81.591 -69.903,79.776 -70.569,78.636C-71.236,77.491 -71.934,75.059 -69.178,71.58L-64.467,65.637C-63.664,64.621 -63.359,63.542 -63.613,62.603C-63.87,61.657 -64.673,60.875 -65.877,60.391L-72.956,57.583C-77.096,55.938 -77.717,53.48 -77.717,52.162C-77.717,50.842 -77.096,48.386 -72.956,46.741L-65.877,43.928C-64.673,43.451 -63.87,42.667 -63.613,41.724C-63.359,40.779 -63.664,39.703 -64.467,38.69L-69.178,32.744C-71.934,29.265 -71.236,26.832 -70.569,25.691C-69.903,24.55 -68.135,22.73 -63.714,23.362L-56.164,24.445C-54.879,24.63 -53.786,24.355 -53.094,23.664C-52.401,22.975 -52.123,21.894 -52.308,20.62L-53.404,13.129C-54.041,8.748 -52.203,6.987 -51.056,6.329C-49.91,5.669 -47.455,4.972 -43.948,7.708L-37.956,12.384C-36.935,13.181 -35.848,13.478 -34.898,13.229C-33.948,12.974 -33.159,12.18 -32.676,10.983L-29.844,3.962C-28.184,-0.146 -25.704,-0.76 -24.378,-0.76C-23.052,-0.76 -20.573,-0.146 -18.913,3.962L-16.081,10.983C-15.597,12.18 -14.809,12.974 -13.859,13.229C-12.903,13.478 -11.822,13.181 -10.8,12.384L-4.808,7.708C-1.302,4.972 1.147,5.669 2.3,6.329C3.453,6.987 5.287,8.748 4.647,13.129L3.554,20.62C3.369,21.894 3.644,22.975 4.343,23.664C5.036,24.355 6.129,24.63 7.407,24.445L14.958,23.362C19.373,22.73 21.147,24.546 21.816,25.688C22.479,26.828 23.178,29.262 20.423,32.744L15.711,38.69C14.91,39.703 14.605,40.779 14.862,41.724C15.113,42.664 15.919,43.449 17.126,43.926L24.199,46.741C28.339,48.386 28.96,50.842 28.96,52.162C28.96,53.48 28.339,55.938 24.199,57.583L17.12,60.391C15.919,60.875 15.113,61.657 14.862,62.603C14.605,63.542 14.91,64.621 15.711,65.637L20.423,71.58C23.178,75.059 22.479,77.491 21.816,78.636C21.147,79.776 19.378,81.591 14.958,80.959L7.407,79.874C6.129,79.691 5.036,79.969 4.343,80.657C3.644,81.344 3.369,82.427 3.554,83.701L4.647,91.193C5.287,95.576 3.453,97.336 2.3,97.993C1.786,98.29 1.015,98.589 0,98.589" style="fill:white;fill-rule:nonzero;"/>
            </g>
            <g transform="matrix(0.653928,0,0,1.31746,379.259,-785.599)">
                <path d="M0,33.581C-9.331,33.581 -16.917,26.048 -16.917,16.792C-16.917,7.534 -9.331,0 0,0C9.331,0 16.923,7.534 16.923,16.792C16.923,26.048 9.331,33.581 0,33.581M0,5.249C-6.416,5.249 -11.631,10.43 -11.631,16.792C-11.631,23.155 -6.416,28.336 0,28.336C6.416,28.336 11.63,23.155 11.63,16.792C11.63,10.43 6.416,5.249 0,5.249" style="fill:white;fill-rule:nonzero;"/>
            </g>
            <g transform="matrix(0.653928,0,0,1.31746,379.474,-748.207)">
                <path d="M0,111.492C-1.463,111.492 -2.784,110.312 -2.784,108.867L-2.784,2.623C-2.784,1.175 -1.463,0 0,0C1.464,0 2.784,1.175 2.784,2.623L2.784,108.867C2.784,110.312 1.464,111.492 0,111.492" style="fill:white;fill-rule:nonzero;"/>
            </g>
            <g transform="matrix(0.653928,0,0,1.31746,316.231,-604.609)">
                <path d="M0,-24.628L5,-24.628L15.561,0L9.892,0L7.64,-5.483L-2.778,-5.483L-5.033,0L-10.561,0L0,-24.628ZM5.705,-10.236L2.431,-18.161L-0.842,-10.236L5.705,-10.236Z" style="fill:white;fill-rule:nonzero;"/>
            </g>
            <g transform="matrix(0.653928,0,0,1.31746,331.028,-604.609)">
                <path d="M0,-24.45L11.266,-24.45C14.4,-24.45 16.827,-23.578 18.446,-21.972C19.82,-20.608 20.561,-18.689 20.561,-16.383L20.561,-16.311C20.561,-12.364 18.41,-9.887 15.281,-8.73L21.296,0L14.964,0L9.68,-7.824L5.42,-7.824L5.42,0L0,0L0,-24.45ZM10.913,-12.572C13.554,-12.572 15.065,-13.97 15.065,-16.033L15.065,-16.105C15.065,-18.41 13.446,-19.595 10.806,-19.595L5.42,-19.595L5.42,-12.572L10.913,-12.572Z" style="fill:white;fill-rule:nonzero;"/>
            </g>
            <g transform="matrix(0.653928,0,0,1.31746,353.646,-611.138)">
                <path d="M0,-14.538L-7.497,-14.538L-7.497,-19.494L12.921,-19.494L12.921,-14.538L5.421,-14.538L5.421,4.956L0,4.956L0,-14.538Z" style="fill:white;fill-rule:nonzero;"/>
            </g>
            <g transform="matrix(0.653928,0,0,1.31746,394.943,-620.81)">
                <path d="M0,0.146L0,0.076C0,-6.884 5.532,-12.573 13.136,-12.573C20.735,-12.573 26.195,-6.949 26.195,0.004L26.195,0.076C26.195,7.023 20.669,12.719 13.065,12.719C5.46,12.719 0,7.093 0,0.146M20.525,0.146L20.525,0.076C20.525,-4.115 17.426,-7.612 13.065,-7.612C8.698,-7.612 5.669,-4.187 5.669,0.004L5.669,0.076C5.669,4.266 8.77,7.758 13.136,7.758C17.503,7.758 20.525,4.331 20.525,0.146" style="fill:white;fill-rule:nonzero;"/>
            </g>
            <g transform="matrix(0.653928,0,0,1.31746,417.498,-604.609)">
                <path d="M0,-24.45L18.763,-24.45L18.763,-19.559L5.424,-19.559L5.424,-14.355L17.18,-14.355L17.18,-9.465L5.424,-9.465L5.424,0L0,0L0,-24.45Z" style="fill:white;fill-rule:nonzero;"/>
            </g>
            <g transform="matrix(0.653928,0,0,1.31746,251.019,-559.355)">
                <path d="M0,0.147L0,0.07C0,-6.876 5.281,-12.572 12.849,-12.572C17.498,-12.572 20.279,-11.038 22.567,-8.797L19.116,-4.849C17.216,-6.563 15.279,-7.612 12.815,-7.612C8.66,-7.612 5.667,-4.186 5.667,0.005L5.667,0.07C5.667,4.266 8.589,7.757 12.815,7.757C15.63,7.757 17.355,6.643 19.292,4.895L22.741,8.356C20.207,11.042 17.394,12.719 12.64,12.719C5.387,12.719 0,7.164 0,0.147" style="fill:white;fill-rule:nonzero;"/>
            </g>
            <g transform="matrix(0.653928,0,0,1.31746,269.579,-559.355)">
                <path d="M0,0.147L0,0.07C0,-6.876 5.526,-12.572 13.127,-12.572C20.731,-12.572 26.19,-6.948 26.19,0.005L26.19,0.07C26.19,7.022 20.664,12.719 13.06,12.719C5.453,12.719 0,7.094 0,0.147M20.522,0.147L20.522,0.07C20.522,-4.121 17.424,-7.612 13.06,-7.612C8.696,-7.612 5.666,-4.186 5.666,0.005L5.666,0.07C5.666,4.266 8.765,7.757 13.127,7.757C17.494,7.757 20.522,4.338 20.522,0.147" style="fill:white;fill-rule:nonzero;"/>
            </g>
            <g transform="matrix(0.653928,0,0,1.31746,292.133,-543.152)">
                <path d="M0,-24.45L5.842,-24.45L12.32,-14.107L18.796,-24.45L24.641,-24.45L24.641,0L19.253,0L19.253,-15.963L12.32,-5.519L12.18,-5.519L5.314,-15.855L5.314,0L0,0L0,-24.45Z" style="fill:white;fill-rule:nonzero;"/>
            </g>
            <g transform="matrix(0.653928,0,0,1.31746,314.547,-543.152)">
                <path d="M0,-24.45L5.845,-24.45L12.321,-14.107L18.799,-24.45L24.644,-24.45L24.644,0L19.256,0L19.256,-15.963L12.321,-5.519L12.18,-5.519L5.316,-15.855L5.316,0L0,0L0,-24.45Z" style="fill:white;fill-rule:nonzero;"/>
            </g>
            <g transform="matrix(0.653928,0,0,1.31746,336.788,-561.05)">
                <path d="M0,3.105L0,-10.865L5.424,-10.865L5.424,2.968C5.424,6.952 7.428,9.008 10.738,9.008C14.047,9.008 16.054,7.017 16.054,3.141L16.054,-10.865L21.478,-10.865L21.478,2.934C21.478,10.336 17.285,13.97 10.669,13.97C4.053,13.97 0,10.302 0,3.105" style="fill:white;fill-rule:nonzero;"/>
            </g>
            <g transform="matrix(0.653928,0,0,1.31746,356.942,-543.152)">
                <path d="M0,-24.45L5,-24.45L16.55,-9.395L16.55,-24.45L21.899,-24.45L21.899,0L17.288,0L5.353,-15.542L5.353,0L0,0L0,-24.45Z" style="fill:white;fill-rule:nonzero;"/>
            </g>
            <g transform="matrix(0.653928,0,0,1.31746,-213.305,-2416.02)">
                <rect x="903.652" y="1397.12" width="5.418" height="24.45" style="fill:white;"/>
            </g>
            <g transform="matrix(0.653928,0,0,1.31746,386.654,-559.355)">
                <path d="M0,0.147L0,0.07C0,-6.876 5.275,-12.572 12.843,-12.572C17.497,-12.572 20.275,-11.038 22.562,-8.797L19.116,-4.849C17.21,-6.563 15.281,-7.612 12.813,-7.612C8.656,-7.612 5.663,-4.186 5.663,0.005L5.663,0.07C5.663,4.266 8.584,7.757 12.813,7.757C15.627,7.757 17.353,6.643 19.289,4.895L22.736,8.356C20.202,11.042 17.383,12.719 12.634,12.719C5.382,12.719 0,7.164 0,0.147" style="fill:white;fill-rule:nonzero;"/>
            </g>
            <g transform="matrix(0.653928,0,0,1.31746,412.053,-543.152)">
                <path d="M0,-24.628L5,-24.628L15.561,0L9.892,0L7.64,-5.483L-2.784,-5.483L-5.036,0L-10.561,0L0,-24.628ZM5.705,-10.231L2.431,-18.168L-0.842,-10.231L5.705,-10.231Z" style="fill:white;fill-rule:nonzero;"/>
            </g>
            <g transform="matrix(0.653928,0,0,1.31746,428.565,-549.688)">
                <path d="M0,-14.528L-7.503,-14.528L-7.503,-19.489L12.915,-19.489L12.915,-14.528L5.418,-14.528L5.418,4.961L0,4.961L0,-14.528Z" style="fill:white;fill-rule:nonzero;"/>
            </g>
            <g transform="matrix(0.653928,0,0,1.31746,-213.305,-2416.02)">
                <rect x="1001.8" y="1397.12" width="5.424" height="24.45" style="fill:white;"/>
            </g>
            <g transform="matrix(0.653928,0,0,1.31746,450.834,-559.355)">
                <path d="M0,0.147L0,0.07C0,-6.876 5.532,-12.572 13.13,-12.572C20.735,-12.572 26.195,-6.948 26.195,0.005L26.195,0.07C26.195,7.022 20.663,12.719 13.059,12.719C5.454,12.719 0,7.094 0,0.147M20.526,0.147L20.526,0.07C20.526,-4.121 17.425,-7.612 13.059,-7.612C8.692,-7.612 5.669,-4.186 5.669,0.005L5.669,0.07C5.669,4.266 8.769,7.757 13.13,7.757C17.497,7.757 20.526,4.338 20.526,0.147" style="fill:white;fill-rule:nonzero;"/>
            </g>
            <g transform="matrix(0.653928,0,0,1.31746,473.389,-543.152)">
                <path d="M0,-24.45L4.995,-24.45L16.548,-9.395L16.548,-24.45L21.894,-24.45L21.894,0L17.282,0L5.347,-15.542L5.347,0L0,0L0,-24.45Z" style="fill:white;fill-rule:nonzero;"/>
            </g>
        </g>
    </g>
</svg>
