<?xml version="1.0" encoding="UTF-8" standalone="no"?>
<!DOCTYPE svg PUBLIC "-//W3C//DTD SVG 1.1//EN" "http://www.w3.org/Graphics/SVG/1.1/DTD/svg11.dtd">
<svg width="100%" height="100%" viewBox="0 0 1200 550" version="1.1" xmlns="http://www.w3.org/2000/svg" xmlns:xlink="http://www.w3.org/1999/xlink" xml:space="preserve" xmlns:serif="http://www.serif.com/" style="fill-rule:evenodd;clip-rule:evenodd;stroke-linejoin:round;stroke-miterlimit:2;">
    <g transform="matrix(1,0,0,1,-3083.58,-4213.54)">
        <g id="Artboard1" transform="matrix(2.01573,0,0,1.00052,2939.05,5183.4)">
            <rect x="71.704" y="-969.355" width="595.317" height="549.714"/>
            <g transform="matrix(0.662774,0,0,1.33528,386.375,-788.554)">
                <path d="M0,20.299C27.819,25.525 55.638,30.991 83.458,37.48C83.942,37.594 84.428,37.643 84.907,37.635C87.599,37.587 90.049,35.697 90.726,32.911C91.524,29.63 89.562,26.339 86.346,25.58C66.357,20.866 46.368,16.694 26.38,12.773C46.368,6.61 66.357,0.699 86.346,-4.67C89.562,-5.534 91.524,-8.864 90.726,-12.127C89.929,-15.39 86.677,-17.344 83.458,-16.469C55.638,-8.925 27.819,-0.358 0,8.449C-2.677,9.296 -4.556,11.864 -4.556,14.669C-4.556,17.475 -2.677,19.796 0,20.299" style="fill:white;fill-rule:nonzero;"/>
            </g>
            <g transform="matrix(0.662774,0,0,1.33528,372.899,-606.257)">
                <path d="M0,-21.434C-27.819,-26.588 -55.639,-31.694 -83.458,-37.531C-86.677,-38.206 -89.929,-36.085 -90.726,-32.784C-91.524,-29.483 -89.563,-26.243 -86.346,-25.561C-66.357,-21.33 -46.369,-17.491 -26.38,-13.753C-46.369,-7.407 -66.357,-1.164 -86.346,4.688C-89.563,5.63 -91.524,9.011 -90.726,12.253C-90.049,15.007 -87.6,16.772 -84.907,16.66C-84.429,16.639 -83.943,16.561 -83.458,16.418C-55.639,8.222 -27.819,-0.706 0,-9.584C2.677,-10.438 4.556,-13.007 4.556,-15.813C4.556,-18.619 2.677,-20.938 0,-21.434" style="fill:white;fill-rule:nonzero;"/>
            </g>
            <g transform="matrix(0.662774,0,0,1.33528,383.923,-826.848)">
                <path d="M0,86.897C3.217,85.876 5.178,82.441 4.38,79.22C-2.073,53.158 -8.526,27.109 -14.978,1.064C-15.642,-1.615 -18.045,-3.366 -20.803,-3.181C-23.56,-2.996 -25.963,-0.923 -26.627,1.844C-33.08,28.753 -39.533,55.658 -45.986,82.552C-46.783,85.876 -44.822,89.06 -41.606,89.661C-38.389,90.263 -35.135,88.05 -34.337,84.726C-29.826,65.916 -25.314,47.103 -20.803,28.29C-16.291,46.498 -11.78,64.706 -7.268,82.918C-6.591,85.653 -4.142,87.348 -1.449,87.172C-0.971,87.141 -0.485,87.051 0,86.897" style="fill:white;fill-rule:nonzero;"/>
            </g>
            <g transform="matrix(0.662774,0,0,1.33528,258.219,-566.659)">
                <path d="M0,-80.585C-0.664,-83.339 -3.066,-85.363 -5.824,-85.515C-8.582,-85.664 -10.985,-83.902 -11.649,-81.22C-13.763,-72.677 -15.878,-64.143 -17.992,-55.619C-20.107,-64.448 -22.222,-73.287 -24.336,-82.136C-25,-84.913 -27.402,-87.023 -30.16,-87.274C-32.918,-87.525 -35.321,-85.852 -35.985,-83.196C-42.437,-57.368 -48.891,-31.642 -55.343,-6.029C-56.141,-2.865 -54.18,0.716 -50.963,1.933C-47.746,3.153 -44.493,1.53 -43.695,-1.653C-39.183,-19.652 -34.672,-37.703 -30.16,-55.803C-28.165,-47.436 -26.17,-39.077 -24.175,-30.728C-26.452,-21.569 -28.73,-12.422 -31.008,-3.288C-31.805,-0.091 -29.844,3.408 -26.627,4.495C-23.411,5.583 -20.156,3.832 -19.359,0.618C-18.904,-1.216 -18.448,-3.051 -17.992,-4.888C-17.537,-2.986 -17.082,-1.085 -16.626,0.816C-15.949,3.643 -13.5,5.671 -10.807,5.836C-10.329,5.865 -9.843,5.836 -9.358,5.742C-6.141,5.121 -4.18,1.909 -4.978,-1.405C-7.255,-10.871 -9.533,-20.347 -11.81,-29.836C-9.815,-37.896 -7.82,-45.966 -5.824,-54.043C-1.313,-35.287 3.199,-16.574 7.71,2.1C8.387,4.904 10.836,6.849 13.53,6.926C14.007,6.94 14.493,6.895 14.978,6.786C18.195,6.061 20.156,2.788 19.358,-0.501C12.905,-27.118 6.453,-53.809 0,-80.585" style="fill:white;fill-rule:nonzero;"/>
            </g>
            <g transform="matrix(0.662774,0,0,1.33528,482.894,-572.845)">
                <path d="M0,-90.024C-3.22,-91.004 -6.472,-89.145 -7.268,-85.906C-11.884,-67.163 -16.498,-48.377 -21.113,-29.553C-22.72,-36.182 -24.325,-42.807 -25.932,-49.426C-23.162,-60.741 -20.392,-72.042 -17.623,-83.329C-16.825,-86.577 -18.786,-89.949 -22.002,-90.834C-25.222,-91.723 -28.474,-89.775 -29.271,-86.514C-30.219,-82.639 -31.166,-78.762 -32.115,-74.883C-33.063,-78.783 -34.01,-82.681 -34.958,-86.577C-35.621,-89.306 -38.024,-91.237 -40.782,-91.241C-43.538,-91.246 -45.943,-89.324 -46.606,-86.598C-48.332,-79.51 -50.058,-72.418 -51.783,-65.321C-53.509,-72.386 -55.234,-79.446 -56.96,-86.501C-57.624,-89.215 -60.026,-91.092 -62.784,-91.038C-65.542,-90.985 -67.945,-89.014 -68.609,-86.275C-75.062,-59.64 -81.515,-32.954 -87.967,-6.227C-88.765,-2.923 -86.804,0.308 -83.587,1.003C-80.371,1.699 -77.117,-0.4 -76.319,-3.695C-71.807,-22.343 -67.296,-40.969 -62.784,-59.567C-61.178,-53.008 -59.572,-46.445 -57.966,-39.88C-60.632,-28.898 -63.299,-17.907 -65.965,-6.908C-66.763,-3.617 -64.801,-0.354 -61.585,0.397C-58.365,1.149 -55.114,-0.888 -54.317,-4.168C-53.472,-7.643 -52.628,-11.116 -51.783,-14.589C-50.939,-11.132 -50.095,-7.675 -49.25,-4.216C-48.573,-1.442 -46.124,0.399 -43.431,0.397C-43.326,0.397 -43.221,0.383 -43.115,0.377C-43.011,0.383 -42.905,0.397 -42.801,0.397C-40.108,0.395 -37.658,-1.45 -36.981,-4.224C-35.359,-10.871 -33.737,-17.514 -32.115,-24.152C-30.493,-17.477 -28.87,-10.798 -27.248,-4.115C-26.571,-1.325 -24.122,0.574 -21.428,0.638C-21.324,0.641 -21.219,0.63 -21.113,0.627C-21.009,0.634 -20.903,0.651 -20.799,0.653C-18.106,0.719 -15.656,-1.063 -14.979,-3.821C-8.526,-30.093 -2.073,-56.286 4.38,-82.392C5.178,-85.616 3.217,-89.047 0,-90.024M-43.115,-29.802C-43.944,-33.2 -44.773,-36.597 -45.601,-39.994C-43.995,-46.59 -42.388,-53.182 -40.782,-59.77C-39.953,-56.369 -39.125,-52.968 -38.297,-49.565C-39.903,-42.982 -41.509,-36.394 -43.115,-29.802" style="fill:white;fill-rule:nonzero;"/>
            </g>
            <g transform="matrix(0.662774,0,0,1.33528,296.443,-562.214)">
                <path d="M0,-83.227C-0.663,-85.938 -3.066,-87.807 -5.824,-87.772C-8.582,-87.736 -10.985,-85.805 -11.648,-83.078C-18.101,-56.554 -24.554,-30.093 -31.007,-3.702C-31.805,-0.442 -29.844,2.901 -26.627,3.74C-23.411,4.58 -20.156,2.587 -19.359,-0.684C-14.847,-19.192 -10.336,-37.732 -5.824,-56.301C-1.313,-37.848 3.199,-19.424 7.71,-1.026C8.387,1.737 10.836,3.533 13.53,3.453C14.007,3.439 14.493,3.366 14.978,3.228C18.195,2.318 20.156,-1.062 19.358,-4.306C12.905,-30.564 6.453,-56.868 0,-83.227" style="fill:white;fill-rule:nonzero;"/>
            </g>
            <g transform="matrix(0.662774,0,0,1.33528,517.186,-681.923)">
                <path d="M0,80.246C-6.452,52.907 -12.906,25.68 -19.358,-1.444C-20.021,-4.234 -22.424,-6.386 -25.182,-6.636C-27.94,-6.887 -30.343,-5.173 -31.007,-2.504C-37.459,23.445 -43.912,49.49 -50.365,75.622C-51.163,78.853 -49.202,82.261 -45.985,83.263C-42.77,84.265 -39.514,82.492 -38.717,79.277C-34.205,61.084 -29.694,42.935 -25.182,24.834C-20.671,43.756 -16.16,62.725 -11.648,81.746C-10.971,84.602 -8.521,86.738 -5.828,87.072C-5.351,87.13 -4.865,87.133 -4.38,87.072C-1.163,86.667 0.798,83.627 0,80.246" style="fill:white;fill-rule:nonzero;"/>
            </g>
            <g transform="matrix(0.662774,0,0,1.33528,224.83,-812.299)">
                <path d="M0,69.663C0.677,72.527 3.126,74.688 5.82,74.997C6.297,75.051 6.783,75.048 7.268,74.98C34.199,71.212 61.129,65.593 88.059,58.833C90.736,58.161 92.615,55.708 92.615,52.903C92.615,50.096 90.736,47.661 88.059,46.983C78.317,44.515 68.576,41.897 58.834,39.096C68.576,36.983 78.317,34.687 88.059,32.242C90.736,31.57 92.615,29.117 92.615,26.311C92.615,23.505 90.736,21.07 88.059,20.392C61.129,13.568 34.199,5.602 7.268,-4.215C4.049,-5.388 0.797,-3.792 0,-0.621C-0.798,2.549 1.163,6.113 4.38,7.303C23.48,14.36 42.58,20.473 61.68,25.895C52.42,27.937 43.159,29.817 33.899,31.506C25.022,28.647 16.145,25.612 7.268,22.377C4.049,21.202 0.797,22.8 0,25.971C-0.798,29.142 1.163,32.705 4.38,33.895C5.908,34.459 7.436,35.018 8.964,35.57C7.436,35.788 5.908,36.001 4.38,36.207C1.163,36.641 -0.798,39.697 0,43.071C0.677,45.935 3.126,48.096 5.82,48.405C6.297,48.46 6.783,48.456 7.268,48.388C16.145,47.146 25.022,45.703 33.899,44.084C43.159,47.067 52.419,49.858 61.679,52.487C42.579,56.699 23.48,60.221 4.38,62.799C1.163,63.232 -0.798,66.289 0,69.663" style="fill:white;fill-rule:nonzero;"/>
            </g>
            <g transform="matrix(0.662774,0,0,1.33528,293.408,-815.263)">
                <path d="M0,83.867C1.066,84.701 2.371,85.128 3.697,85.105C4.18,85.097 4.665,85.029 5.142,84.9C32.961,77.363 60.78,68.802 88.6,59.997C91.816,58.978 93.777,55.539 92.979,52.319C92.182,49.099 88.931,47.312 85.711,48.332C60.373,56.335 35.036,64.114 9.698,71.078L9.698,4.781C9.698,1.409 7.012,-1.261 3.697,-1.204C0.383,-1.146 -2.303,1.617 -2.303,4.989L-2.303,79.089C-2.303,80.966 -1.453,82.73 0,83.867" style="fill:white;fill-rule:nonzero;"/>
            </g>
            <g transform="matrix(0.662774,0,0,1.33528,456.047,-832.034)">
                <path d="M0,86.31C3.314,86.316 6,83.609 6,80.237L6,50.712C31.339,57.317 56.676,64.986 82.014,74.309C82.499,74.488 82.985,74.603 83.463,74.66C86.156,74.977 88.605,73.432 89.283,70.741C90.08,67.573 88.119,64.002 84.902,62.801C64.914,55.346 44.925,48.935 24.936,43.277C44.925,38.852 64.914,35.18 84.902,32.552C88.119,32.13 90.08,29.08 89.283,25.703C88.486,22.328 85.232,19.917 82.014,20.361C56.676,23.819 31.339,28.931 6,35.106L6,6.137C6,2.766 3.314,0.008 0,0.001C-3.314,-0.006 -6,2.741 -6,6.112L-6,80.212C-6,83.584 -3.314,86.303 0,86.31" style="fill:white;fill-rule:nonzero;"/>
            </g>
            <g transform="matrix(0.662774,0,0,1.33528,400.655,-588.162)">
                <path d="M0,-63.072C-17.095,-62.074 -31.003,-46.974 -31.003,-29.591C-31.003,-12.192 -17.095,1.005 0,0.006C17.096,-0.998 31.004,-15.719 31.004,-33.108C31.004,-50.501 17.096,-64.077 0,-63.072M0,-12.202C-10.478,-11.593 -19.002,-19.71 -19.002,-30.37C-19.002,-41.027 -10.478,-50.253 0,-50.863C10.478,-51.474 19.002,-43.216 19.002,-32.557C19.002,-21.898 10.478,-12.814 0,-12.202" style="fill:white;fill-rule:nonzero;"/>
            </g>
        </g>
    </g>
</svg>
