<?xml version="1.0" encoding="UTF-8" standalone="no"?>
<!DOCTYPE svg PUBLIC "-//W3C//DTD SVG 1.1//EN" "http://www.w3.org/Graphics/SVG/1.1/DTD/svg11.dtd">
<svg width="100%" height="100%" viewBox="0 0 1200 550" version="1.1" xmlns="http://www.w3.org/2000/svg" xmlns:xlink="http://www.w3.org/1999/xlink" xml:space="preserve" xmlns:serif="http://www.serif.com/" style="fill-rule:evenodd;clip-rule:evenodd;stroke-linejoin:round;stroke-miterlimit:2;">
    <g transform="matrix(1,0,0,1,-3083.58,-1.13687e-13)">
        <g id="Artboard1" transform="matrix(2.01573,0,0,1.00052,2939.05,969.859)">
            <rect x="71.704" y="-969.355" width="595.317" height="549.714"/>
            <g transform="matrix(0.545196,0,0,1.0984,387.655,-793.305)">
                <path d="M0,-0.001C0,-46.091 -37.29,-83.589 -83.125,-83.589C-128.959,-83.589 -166.248,-46.091 -166.248,-0.001C-166.248,46.09 -128.959,83.588 -83.125,83.588C-37.29,83.588 0,46.09 0,-0.001M-159.266,-0.001C-159.266,-42.22 -125.109,-76.568 -83.125,-76.568C-41.139,-76.568 -6.983,-42.22 -6.983,-0.001C-6.983,42.219 -41.139,76.567 -83.125,76.567C-125.109,76.567 -159.266,42.219 -159.266,-0.001" style="fill:white;fill-rule:nonzero;"/>
            </g>
            <g transform="matrix(0.545196,0,0,1.0984,434.29,-876.121)">
                <path d="M0,151.525L-71.577,151.525L-71.577,-7.021L-78.557,-7.021L-78.557,158.546L3.747,158.546L0,151.525Z" style="fill:white;fill-rule:nonzero;"/>
            </g>
            <g transform="matrix(0.545196,0,0,1.0984,429.291,-876.146)">
                <path d="M0,134.749L-44.444,134.749L-44.444,-7.021L-51.426,-7.021L-51.426,141.77L3.749,141.77L0,134.749Z" style="fill:white;fill-rule:nonzero;"/>
            </g>
            <g transform="matrix(0.545196,0,0,1.0984,278.621,-701.982)">
                <path d="M0,-165.553L0,-165.56L-22.544,-165.56L-22.544,-154.591L-22.602,-154.591C-22.602,-144.835 -20.148,-139.692 -17.983,-135.157C-15.961,-130.92 -14.051,-126.918 -14.051,-118.758C-14.051,-110.6 -15.961,-106.598 -17.983,-102.363C-20.148,-97.826 -22.602,-92.684 -22.602,-82.927C-22.602,-73.17 -20.148,-68.028 -17.983,-63.491C-15.961,-59.254 -14.051,-55.251 -14.051,-47.092C-14.051,-38.931 -15.961,-34.929 -17.983,-30.692C-20.148,-26.157 -22.602,-21.013 -22.602,-11.255L-22.544,-11.255L-22.544,0.007L0,0.007L0,-0.001C15.424,-0.159 27.926,-12.82 27.926,-28.367L27.926,-137.186C27.926,-152.734 15.424,-165.395 0,-165.553M20.945,-137.186L20.945,-28.367C20.945,-16.593 11.419,-7.014 -0.291,-7.014L-15.563,-7.014L-15.563,-12.133L-15.608,-12.133C-15.474,-19.701 -13.636,-23.575 -11.688,-27.655C-9.523,-32.191 -7.069,-37.334 -7.069,-47.092C-7.069,-56.849 -9.523,-61.992 -11.688,-66.529C-13.711,-70.766 -15.621,-74.768 -15.621,-82.927C-15.621,-91.086 -13.711,-95.088 -11.688,-99.324C-9.523,-103.86 -7.069,-109.003 -7.069,-118.758C-7.069,-128.516 -9.523,-133.657 -11.688,-138.196C-13.698,-142.405 -15.595,-146.386 -15.619,-154.445L-15.563,-154.445L-15.563,-158.54L-0.291,-158.54C11.419,-158.54 20.945,-148.961 20.945,-137.186Z" style="fill:white;fill-rule:nonzero;"/>
            </g>
            <g transform="matrix(0.545196,0,0,1.0984,457.277,-688.265)">
                <path d="M0,-171.028L9.163,-171.028C20.823,-171.028 30.318,-161.528 30.396,-149.82C30.321,-138.727 21.791,-129.621 10.978,-128.696L2.328,-128.696L6.796,-121.508L10.348,-121.508C21.507,-120.888 30.4,-111.564 30.4,-100.189L30.454,-100.189C30.407,-92.232 28.52,-88.271 26.525,-84.087C24.362,-79.551 21.905,-74.41 21.905,-64.653C21.905,-54.895 24.362,-49.752 26.525,-45.216C28.547,-40.98 30.459,-36.976 30.459,-28.817C30.459,-20.656 28.547,-16.654 26.525,-12.417C24.362,-7.881 21.905,-2.738 21.905,7.02L28.888,7.02C28.888,-1.141 30.797,-5.143 32.819,-9.38C34.985,-13.916 37.439,-19.059 37.439,-28.817C37.439,-38.573 34.985,-43.716 32.819,-48.254C30.797,-52.49 28.888,-56.492 28.888,-64.653C28.888,-72.812 30.797,-76.813 32.819,-81.049C34.985,-85.585 37.439,-90.728 37.439,-100.484L37.372,-100.484C37.264,-111.076 31.359,-120.296 22.699,-125.078C31.359,-129.86 37.265,-139.081 37.372,-149.673L37.38,-149.673C37.38,-149.723 37.376,-149.771 37.376,-149.82C37.376,-149.869 37.38,-149.917 37.38,-149.966L37.372,-149.966C37.216,-165.33 24.859,-177.802 9.6,-178.037L9.6,-178.048L-6.981,-178.048L-6.981,-12.774L0,-12.774L0,-171.028Z" style="fill:white;fill-rule:nonzero;"/>
            </g>
            <g transform="matrix(0.545196,0,0,1.0984,413.537,-763.918)">
                <path d="M0,-53.071L11.26,-53.071L11.26,22.19L18.243,22.19L18.243,-53.071L56.085,-53.071L56.085,56.102L63.067,56.102L63.067,-83.124C63.067,-97.488 51.448,-109.173 37.164,-109.173C22.881,-109.173 11.26,-97.488 11.26,-83.124L11.26,-60.259L-4.469,-60.259L0,-53.071ZM18.243,-83.124C18.243,-93.617 26.73,-102.153 37.164,-102.153C47.597,-102.153 56.085,-93.617 56.085,-83.124L56.085,-60.259L18.243,-60.259L18.243,-83.124Z" style="fill:white;fill-rule:nonzero;"/>
            </g>
            <g transform="matrix(0.545196,0,0,1.0984,437.096,-503.877)">
                <path d="M0,-167.176C-19.472,-167.176 -37.401,-160.405 -51.584,-149.085C-65.972,-160.518 -84.037,-167.176 -103.122,-167.176C-148.955,-167.176 -186.245,-129.678 -186.245,-83.587C-186.245,-37.497 -148.955,0 -103.122,0C-84.029,0 -65.969,-6.658 -51.584,-18.09C-37.399,-6.77 -19.471,0 0,0C45.834,0 83.124,-37.497 83.124,-83.587C83.124,-129.678 45.834,-167.176 0,-167.176M-103.122,-7.02C-145.107,-7.02 -179.263,-41.367 -179.263,-83.587C-179.263,-125.806 -145.107,-160.155 -103.122,-160.155C-86.099,-160.155 -69.964,-154.376 -56.959,-144.405C-73.056,-129.152 -83.122,-107.53 -83.122,-83.587C-83.122,-59.643 -73.056,-38.022 -56.959,-22.768C-69.96,-12.799 -86.092,-7.02 -103.122,-7.02M0,-7.02C-17.354,-7.02 -33.366,-12.893 -46.187,-22.759C-37.223,-31.219 -30.059,-41.71 -25.496,-53.677L-33.02,-53.677C-37.324,-43.494 -43.719,-34.565 -51.571,-27.312C-66.668,-41.312 -76.142,-61.357 -76.142,-83.587C-76.142,-105.816 -66.67,-125.859 -51.576,-139.86C-43.835,-132.71 -37.51,-123.935 -33.211,-113.936L-25.665,-113.936C-30.235,-125.72 -37.337,-136.054 -46.193,-144.41C-33.372,-154.281 -17.356,-160.155 0,-160.155C41.984,-160.155 76.142,-125.806 76.142,-83.587C76.142,-41.367 41.984,-7.02 0,-7.02" style="fill:white;fill-rule:nonzero;"/>
            </g>
            <g transform="matrix(0.545196,0,0,1.0984,324.457,-591.063)">
                <path d="M0,-9.968C-18.337,-31.69 -16.657,-48.503 -16.641,-48.648L-16.612,-49.095C-16.612,-66.531 -2.507,-80.716 14.831,-80.716L14.831,-87.736C-6.295,-87.736 -23.493,-70.504 -23.593,-49.283C-23.827,-46.808 -24.791,-28.456 -5.282,-5.375L-5.279,-5.378C14.432,17.967 12.609,36.052 12.59,36.214L12.562,36.659C12.562,55.455 -2.644,70.747 -21.335,70.747L-21.335,77.768C1.142,77.768 19.441,59.43 19.543,36.848C19.788,34.287 20.866,14.711 0.005,-9.972L0,-9.968Z" style="fill:white;fill-rule:nonzero;"/>
            </g>
            <g transform="matrix(0.545196,0,0,1.0984,278.621,-504.046)">
                <path d="M0,-165.552L0,-165.56L-22.544,-165.56L-22.544,-154.59L-22.602,-154.59C-22.602,-144.833 -20.148,-139.69 -17.983,-135.155C-15.961,-130.919 -14.051,-126.917 -14.051,-118.757C-14.051,-110.599 -15.961,-106.597 -17.983,-102.36C-20.148,-97.825 -22.602,-92.682 -22.602,-82.926C-22.602,-73.168 -20.148,-68.025 -17.983,-63.49C-15.961,-59.252 -14.051,-55.251 -14.051,-47.091C-14.051,-38.93 -15.961,-34.928 -17.983,-30.691C-20.148,-26.154 -22.602,-21.012 -22.602,-11.255L-22.544,-11.255L-22.544,0.008L0,0.008L0,0C15.424,-0.158 27.926,-12.819 27.926,-28.366L27.926,-137.185C27.926,-152.733 15.424,-165.393 0,-165.552M20.945,-137.185L20.945,-28.366C20.945,-16.593 11.419,-7.011 -0.291,-7.011L-15.563,-7.011L-15.563,-11.84L-15.612,-11.84C-15.521,-19.602 -13.661,-23.521 -11.688,-27.654C-9.523,-32.19 -7.069,-37.332 -7.069,-47.091C-7.069,-56.847 -9.523,-61.991 -11.688,-66.527C-13.711,-70.763 -15.621,-74.766 -15.621,-82.926C-15.621,-91.085 -13.711,-95.088 -11.688,-99.323C-9.523,-103.859 -7.069,-109.001 -7.069,-118.757C-7.069,-128.515 -9.523,-133.656 -11.688,-138.192C-13.673,-142.351 -15.545,-146.292 -15.615,-154.152L-15.563,-154.152L-15.563,-158.539L-0.291,-158.539C11.419,-158.539 20.945,-148.96 20.945,-137.185Z" style="fill:white;fill-rule:nonzero;"/>
            </g>
            <g transform="matrix(0.545196,0,0,1.0984,307.256,-549.979)">
                <path d="M0,-82.205C0,-93.278 -2.668,-98.867 -5.248,-104.272C-7.594,-109.185 -9.809,-113.826 -9.809,-123.301L-16.79,-123.301C-16.79,-112.228 -14.122,-106.639 -11.542,-101.233C-9.196,-96.32 -6.983,-91.68 -6.983,-82.205C-6.983,-72.729 -9.196,-68.088 -11.542,-63.174C-14.122,-57.77 -16.79,-52.181 -16.79,-41.107C-16.79,-30.034 -14.122,-24.445 -11.542,-19.039C-9.196,-14.125 -6.983,-9.483 -6.983,-0.006C-6.983,9.472 -9.196,14.112 -11.542,19.026C-14.122,24.431 -16.79,30.021 -16.79,41.096L-9.809,41.096C-9.809,31.618 -7.594,26.978 -5.248,22.065C-2.668,16.659 0,11.068 0,-0.006C0,-11.081 -2.668,-16.67 -5.248,-22.076C-7.594,-26.99 -9.809,-31.632 -9.809,-41.107C-9.809,-50.582 -7.594,-55.224 -5.248,-60.137C-2.668,-65.542 0,-71.132 0,-82.205" style="fill:white;fill-rule:nonzero;"/>
            </g>
        </g>
    </g>
</svg>
