<?xml version="1.0" encoding="UTF-8" standalone="no"?>
<!DOCTYPE svg PUBLIC "-//W3C//DTD SVG 1.1//EN" "http://www.w3.org/Graphics/SVG/1.1/DTD/svg11.dtd">
<svg width="100%" height="100%" viewBox="0 0 1200 550" version="1.1" xmlns="http://www.w3.org/2000/svg" xmlns:xlink="http://www.w3.org/1999/xlink" xml:space="preserve" xmlns:serif="http://www.serif.com/" style="fill-rule:evenodd;clip-rule:evenodd;stroke-linejoin:round;stroke-miterlimit:2;">
    <g transform="matrix(1,0,0,1,-3083.58,-2104.35)">
        <g id="Artboard1" transform="matrix(2.01573,0,0,1.00052,2939.05,3074.21)">
            <rect x="71.704" y="-969.355" width="595.317" height="549.714" style="fill:white;"/>
            <g transform="matrix(0.680369,0,0,1.37073,261.48,-570.936)">
                <path d="M0,-174.454L-40.693,-39.22L133.324,-87.675L106.899,10.04L278.435,-42.673L265.695,67.773L350.53,-163.158L251.089,-135.547L285.894,-242.227L0,-174.454Z" style="fill-rule:nonzero;"/>
            </g>
            <g transform="matrix(0.680369,0,0,1.37073,284.02,-696.915)">
                <path d="M0,-53.877L-5.419,-32.466L3.477,-34.846L0.811,-24.316L-8.084,-21.935L-16.227,10.24L-28.73,13.586L-9.839,-61.062L14.085,-67.463L11.42,-56.933L0,-53.877Z" style="fill:white;fill-rule:nonzero;"/>
            </g>
            <g transform="matrix(0.680369,0,0,1.37073,299.233,-790.156)">
                <path d="M0,67.94L0.515,37.805L-0.454,38.064L-8.597,70.239L-20.738,73.488L-1.846,-1.16L12.339,-4.955C14.502,-5.534 16.392,-5.548 18.009,-4.999C19.626,-4.45 20.879,-3.422 21.769,-1.915C22.655,-0.407 23.155,1.532 23.265,3.903C23.376,6.273 23.046,8.978 22.276,12.021C21.387,15.532 20.085,18.898 18.364,22.121C16.645,25.345 14.824,27.941 12.896,29.91L12.561,64.579L0,67.94ZM9.88,15.392C10.772,11.864 11.045,9.271 10.702,7.607C10.354,5.943 9.732,5.232 8.827,5.474L7.719,5.771L2.212,27.533L3.319,27.237C4.224,26.995 5.324,25.826 6.623,23.721C7.921,21.619 9.006,18.845 9.88,15.392" style="fill:white;fill-rule:nonzero;"/>
            </g>
            <g transform="matrix(0.680369,0,0,1.37073,311.934,-814.574)">
                <path d="M0,80.759L18.89,6.111L41.731,0L39.065,10.531L28.487,13.361L23.069,34.772L31.605,32.488L28.939,43.019L20.403,45.302L14.926,66.947L26.466,63.86L23.802,74.39L0,80.759Z" style="fill:white;fill-rule:nonzero;"/>
            </g>
            <g transform="matrix(0.166909,-1.32884,-0.659578,-0.336269,366.358,-734.486)">
                <path d="M-25.959,44.646L51.042,44.646L57.351,33.347L-19.65,33.348L-25.959,44.646Z" style="fill:white;fill-rule:nonzero;"/>
            </g>
            <g transform="matrix(0.680369,0,0,1.37073,363.089,-826.477)">
                <path d="M0,68.192C-2.161,69.931 -4.883,71.241 -8.169,72.12C-10.895,72.849 -13.037,72.604 -14.594,71.385C-16.154,70.166 -17.181,68.098 -17.674,65.176C-18.167,62.256 -18.143,58.543 -17.599,54.037C-17.056,49.532 -16.035,44.317 -14.534,38.391C-13.054,32.546 -11.396,27.18 -9.561,22.291C-7.725,17.404 -5.692,13.135 -3.46,9.484C-1.228,5.835 1.171,2.85 3.739,0.528C6.306,-1.793 9.034,-3.34 11.919,-4.112C13.922,-4.647 15.586,-4.657 16.912,-4.139C18.239,-3.621 18.963,-2.87 19.088,-1.886L15.496,10.085C15.51,9.138 15.188,8.242 14.536,7.4C13.881,6.556 12.785,6.341 11.248,6.752C9.871,7.119 8.565,8.106 7.332,9.706C6.095,11.308 4.913,13.37 3.785,15.888C2.657,18.406 1.58,21.311 0.56,24.599C-0.461,27.888 -1.445,31.403 -2.391,35.144C-3.339,38.886 -4.147,42.373 -4.809,45.602C-5.473,48.832 -5.931,51.626 -6.181,53.983C-6.435,56.338 -6.469,58.148 -6.288,59.407C-6.106,60.666 -5.686,61.208 -5.025,61.031C-4.544,60.903 -4.114,60.534 -3.736,59.924L0.883,41.682L-1.76,42.389L0.787,32.334L13.887,28.831L5.361,62.506C3.945,64.557 2.156,66.453 0,68.192" style="fill:white;fill-rule:nonzero;"/>
            </g>
            <g transform="matrix(0.680369,0,0,1.37073,384.387,-842.785)">
                <path d="M0,72.847L8.143,40.671L1.292,42.504L-6.851,74.68L-19.111,77.961L-0.221,3.313L12.04,0.032L3.957,31.974L10.808,30.141L18.892,-1.801L31.274,-5.114L12.384,69.534L0,72.847Z" style="fill:white;fill-rule:nonzero;"/>
            </g>
            <g transform="matrix(0.680369,0,0,1.37073,422.13,-770.085)">
                <path d="M0,-54.809L-16.225,9.308L-28.728,12.654L-12.501,-51.464L-20.556,-49.309L-17.89,-59.84L10.601,-67.463L7.936,-56.932L0,-54.809Z" style="fill:white;fill-rule:nonzero;"/>
            </g>
            <g transform="matrix(0.680369,0,0,1.37073,387.386,-711.081)">
                <path d="M0,69.628L-10.306,72.397L-7.174,43.816C-7.022,42.014 -6.75,39.813 -6.358,37.213C-5.97,34.612 -5.507,31.958 -4.973,29.244L-5.216,29.309C-6.073,32.11 -6.996,34.87 -7.981,37.593C-8.969,40.319 -9.831,42.697 -10.569,44.729L-22.55,75.688L-32.735,78.425L-25.397,6.224L-13.758,3.096L-17.494,32.279C-17.848,34.283 -18.216,36.638 -18.595,39.345C-18.978,42.053 -19.384,44.565 -19.815,46.884L-19.574,46.819C-18.819,44.413 -17.947,41.776 -16.958,38.905C-15.972,36.035 -15.099,33.545 -14.342,31.432L-3.089,0.228L8.792,-2.965L4.936,26.251C4.683,28.448 4.338,30.869 3.897,33.522C3.455,36.172 3.025,38.617 2.613,40.856L2.856,40.791C3.592,38.464 4.444,35.906 5.41,33.114C6.378,30.321 7.31,27.742 8.21,25.371L19.461,-5.832L30.495,-8.797L0,69.628Z" style="fill:white;fill-rule:nonzero;"/>
            </g>
            <g transform="matrix(0.680369,0,0,1.37073,412.676,-730.09)">
                <path d="M0,73.506L8.179,41.036L1.269,42.893L-6.911,75.363L-19.276,78.686L-0.3,3.357L12.066,0.033L3.946,32.266L10.857,30.409L18.977,-1.823L31.465,-5.18L12.488,70.15L0,73.506Z" style="fill:white;fill-rule:nonzero;"/>
            </g>
            <g transform="matrix(0.166207,-1.3292,-0.659756,-0.334854,461.677,-657.187)">
                <path d="M-26.232,45.059L51.451,45.059L57.818,33.659L-19.866,33.658L-26.232,45.059Z" style="fill:white;fill-rule:nonzero;"/>
            </g>
            <g transform="matrix(0.680369,0,0,1.37073,440.647,-756.801)">
                <path d="M0,81.944L0.776,78.869L18.51,35.835C19.83,32.687 21.311,29.128 22.951,25.158C24.591,21.189 26.122,17.58 27.545,14.329L27.333,14.276L18.481,16.654L21.158,6.028L43.588,0L42.812,3.076L25.047,46.226C24.409,47.869 23.701,49.622 22.934,51.483C22.162,53.345 21.368,55.229 20.546,57.141C19.725,59.055 18.939,60.902 18.19,62.683C17.44,64.465 16.765,66.099 16.164,67.582L16.376,67.636L27.772,64.573L25.096,75.199L0,81.944Z" style="fill:white;fill-rule:nonzero;"/>
            </g>
        </g>
    </g>
</svg>
