<?xml version="1.0" encoding="UTF-8" standalone="no"?>
<!DOCTYPE svg PUBLIC "-//W3C//DTD SVG 1.1//EN" "http://www.w3.org/Graphics/SVG/1.1/DTD/svg11.dtd">
<svg width="100%" height="100%" viewBox="0 0 1200 550" version="1.1" xmlns="http://www.w3.org/2000/svg" xmlns:xlink="http://www.w3.org/1999/xlink" xml:space="preserve" xmlns:serif="http://www.serif.com/" style="fill-rule:evenodd;clip-rule:evenodd;stroke-linejoin:round;stroke-miterlimit:2;">
    <g transform="matrix(1,0,0,1,-3083.58,-2760.03)">
        <g id="Artboard1" transform="matrix(2.01573,0,0,1.00052,2939.05,3729.89)">
            <rect x="71.704" y="-969.355" width="595.317" height="549.714"/>
            <g transform="matrix(0.575172,0,0,1.15879,304.603,-601.778)">
                <path d="M0,38.615L-15.565,4.95L-15.669,4.95L-15.669,34.105C-15.669,34.729 -15.53,35.169 -15.247,35.424C-14.963,35.682 -14.661,35.874 -14.343,36.003C-14.024,36.132 -13.723,36.27 -13.439,36.414C-13.155,36.561 -13.016,36.819 -13.016,37.185L-13.016,38.615L-21.41,38.615L-21.41,37.185C-21.41,36.819 -21.265,36.561 -20.981,36.414C-20.703,36.27 -20.402,36.132 -20.083,36.003C-19.765,35.874 -19.464,35.682 -19.18,35.424C-18.896,35.169 -18.751,34.729 -18.751,34.105L-18.751,4.509C-18.751,3.889 -18.879,3.448 -19.122,3.19C-19.371,2.935 -19.637,2.749 -19.921,2.641C-20.205,2.531 -20.472,2.419 -20.721,2.311C-20.964,2.201 -21.091,1.946 -21.091,1.54L-21.091,0.11L-11.313,0.11L1.385,27.283L1.489,27.283L1.489,4.509C1.489,3.889 1.35,3.448 1.066,3.19C0.782,2.935 0.481,2.743 0.162,2.615C-0.156,2.486 -0.458,2.357 -0.741,2.228C-1.025,2.099 -1.17,1.835 -1.17,1.43L-1.17,0L7.229,0L7.229,1.43C7.229,1.835 7.085,2.099 6.801,2.228C6.517,2.357 6.216,2.486 5.897,2.615C5.578,2.743 5.277,2.935 4.993,3.19C4.71,3.448 4.571,3.889 4.571,4.509L4.571,38.615L0,38.615Z" style="fill:white;fill-rule:nonzero;"/>
            </g>
            <g transform="matrix(0.575172,0,0,1.15879,319.24,-556.139)">
                <path d="M0,-40.046C2.271,-40.046 4.287,-39.524 6.059,-38.477C7.832,-37.434 9.326,-36.003 10.549,-34.186C11.771,-32.372 12.709,-30.255 13.364,-27.835C14.019,-25.414 14.349,-22.809 14.349,-20.023C14.349,-17.237 14.019,-14.631 13.364,-12.211C12.709,-9.791 11.771,-7.674 10.549,-5.859C9.326,-4.042 7.832,-2.611 6.059,-1.568C4.287,-0.522 2.271,0 0,0C-2.265,0 -4.287,-0.522 -6.053,-1.568C-7.826,-2.611 -9.321,-4.042 -10.543,-5.859C-11.765,-7.674 -12.703,-9.791 -13.358,-12.211C-14.018,-14.631 -14.343,-17.237 -14.343,-20.023C-14.343,-22.809 -14.018,-25.414 -13.358,-27.835C-12.703,-30.255 -11.765,-32.372 -10.543,-34.186C-9.321,-36.003 -7.826,-37.434 -6.053,-38.477C-4.287,-39.524 -2.265,-40.046 0,-40.046M0,-37.733C-1.06,-37.733 -2.062,-37.497 -3.001,-37.02C-3.939,-36.543 -4.756,-35.644 -5.445,-34.324C-6.135,-33.005 -6.673,-31.196 -7.067,-28.905C-7.455,-26.614 -7.646,-23.654 -7.646,-20.023C-7.646,-16.391 -7.455,-13.431 -7.067,-11.14C-6.673,-8.846 -6.135,-7.041 -5.445,-5.722C-4.756,-4.402 -3.939,-3.503 -3.001,-3.025C-2.062,-2.549 -1.06,-2.312 0,-2.312C1.066,-2.312 2.056,-2.549 2.978,-3.025C3.899,-3.503 4.704,-4.402 5.393,-5.722C6.082,-7.041 6.633,-8.846 7.044,-11.14C7.45,-13.431 7.652,-16.391 7.652,-20.023C7.652,-23.654 7.45,-26.614 7.044,-28.905C6.633,-31.196 6.082,-33.005 5.393,-34.324C4.704,-35.644 3.899,-36.543 2.978,-37.02C2.056,-37.497 1.066,-37.733 0,-37.733" style="fill:white;fill-rule:nonzero;"/>
            </g>
            <g transform="matrix(0.575172,0,0,1.15879,341,-601.651)">
                <path d="M0,38.505L-7.757,21.949C-8.22,20.995 -8.672,20.362 -9.112,20.05C-9.558,19.738 -10.132,19.582 -10.838,19.582L-10.838,34.106C-10.838,34.729 -10.717,35.167 -10.468,35.425C-10.219,35.68 -9.958,35.866 -9.674,35.974C-9.39,36.085 -9.124,36.205 -8.875,36.331C-8.625,36.46 -8.504,36.709 -8.504,37.075L-8.504,38.505L-19.128,38.505L-19.128,37.075C-19.128,36.709 -19.006,36.46 -18.757,36.331C-18.508,36.205 -18.241,36.085 -17.958,35.974C-17.674,35.866 -17.413,35.68 -17.164,35.425C-16.915,35.167 -16.793,34.729 -16.793,34.106L-16.793,4.399C-16.793,3.779 -16.915,3.338 -17.164,3.08C-17.413,2.825 -17.674,2.639 -17.958,2.531C-18.241,2.421 -18.508,2.309 -18.757,2.201C-19.006,2.091 -19.128,1.836 -19.128,1.43L-19.128,0L-6.911,0C-3.261,0 -0.417,0.834 1.616,2.505C3.655,4.171 4.675,6.565 4.675,9.68C4.675,10.856 4.507,11.974 4.171,13.036C3.829,14.1 3.29,15.054 2.549,15.897C1.802,16.743 0.846,17.429 -0.319,17.96C-1.489,18.491 -2.891,18.776 -4.518,18.812L-4.518,18.923C-3.702,19.141 -3.03,19.51 -2.497,20.023C-1.97,20.536 -1.454,21.288 -0.956,22.279L4.941,34.27C5.219,34.855 5.555,35.26 5.949,35.479C6.337,35.701 6.702,35.857 7.038,35.947C7.374,36.04 7.664,36.139 7.913,36.25C8.162,36.36 8.284,36.597 8.284,36.963L8.284,38.505L0,38.505ZM-10.838,17.273L-8.927,17.273C-6.164,17.273 -4.252,16.631 -3.192,15.348C-2.126,14.065 -1.599,12.211 -1.599,9.792C-1.599,7.371 -2.126,5.521 -3.192,4.235C-4.252,2.951 -6.164,2.309 -8.927,2.309L-10.838,2.309L-10.838,17.273Z" style="fill:white;fill-rule:nonzero;"/>
            </g>
            <g transform="matrix(0.575172,0,0,1.15879,358.599,-557.925)">
                <path d="M0,-37.734C0.672,-37.734 1.274,-37.818 1.802,-37.983C2.334,-38.148 2.85,-38.322 3.342,-38.505L3.4,-38.448L3.4,-27.394L1.964,-27.394C1.5,-27.394 1.164,-27.586 0.956,-27.97C0.741,-28.357 0.573,-28.831 0.452,-29.4C0.324,-29.97 0.191,-30.582 0.052,-31.244C-0.093,-31.904 -0.295,-32.516 -0.562,-33.086C-0.823,-33.656 -1.217,-34.132 -1.726,-34.516C-2.242,-34.9 -2.925,-35.095 -3.777,-35.095L-5.955,-35.095L-5.955,-3.628C-5.955,-3.005 -5.828,-2.567 -5.578,-2.309C-5.335,-2.054 -5.069,-1.868 -4.785,-1.76C-4.501,-1.65 -4.235,-1.529 -3.985,-1.403C-3.736,-1.274 -3.615,-1.026 -3.615,-0.66L-3.615,0.771L-14.239,0.771L-14.239,-0.66C-14.239,-1.026 -14.117,-1.274 -13.868,-1.403C-13.619,-1.529 -13.358,-1.65 -13.074,-1.76C-12.791,-1.868 -12.524,-2.054 -12.275,-2.309C-12.026,-2.567 -11.904,-3.005 -11.904,-3.628L-11.904,-35.095L-14.082,-35.095C-14.969,-35.095 -15.658,-34.9 -16.15,-34.516C-16.648,-34.132 -17.031,-33.656 -17.297,-33.086C-17.558,-32.516 -17.766,-31.904 -17.906,-31.244C-18.05,-30.582 -18.184,-29.97 -18.305,-29.4C-18.427,-28.831 -18.606,-28.357 -18.838,-27.97C-19.064,-27.586 -19.394,-27.394 -19.817,-27.394L-21.254,-27.394L-21.254,-38.448L-21.202,-38.505C-20.703,-38.322 -20.188,-38.148 -19.661,-37.983C-19.128,-37.818 -18.525,-37.734 -17.853,-37.734L0,-37.734Z" style="fill:white;fill-rule:nonzero;"/>
            </g>
            <g transform="matrix(0.575172,0,0,1.15879,379.117,-557.031)">
                <path d="M0,-38.505L0,-37.075C0,-36.669 -0.127,-36.414 -0.371,-36.304C-0.62,-36.196 -0.886,-36.085 -1.17,-35.974C-1.454,-35.866 -1.72,-35.68 -1.964,-35.425C-2.213,-35.167 -2.34,-34.726 -2.34,-34.106L-2.34,-4.399C-2.34,-3.776 -2.213,-3.338 -1.964,-3.08C-1.72,-2.825 -1.454,-2.639 -1.17,-2.531C-0.886,-2.421 -0.62,-2.3 -0.371,-2.174C-0.127,-2.045 0,-1.797 0,-1.431L0,0L-10.624,0L-10.624,-1.431C-10.624,-1.797 -10.502,-2.045 -10.253,-2.174C-10.004,-2.3 -9.743,-2.421 -9.46,-2.531C-9.176,-2.639 -8.909,-2.825 -8.66,-3.08C-8.411,-3.338 -8.29,-3.776 -8.29,-4.399L-8.29,-18.482L-19.921,-18.482L-19.921,-4.399C-19.921,-3.776 -19.8,-3.338 -19.551,-3.08C-19.302,-2.825 -19.041,-2.639 -18.757,-2.531C-18.473,-2.421 -18.207,-2.3 -17.958,-2.174C-17.708,-2.045 -17.587,-1.797 -17.587,-1.431L-17.587,0L-28.211,0L-28.211,-1.431C-28.211,-1.797 -28.089,-2.045 -27.84,-2.174C-27.591,-2.3 -27.324,-2.421 -27.041,-2.531C-26.763,-2.639 -26.496,-2.825 -26.247,-3.08C-25.998,-3.338 -25.876,-3.776 -25.876,-4.399L-25.876,-34.106C-25.876,-34.726 -25.998,-35.167 -26.247,-35.425C-26.496,-35.68 -26.763,-35.866 -27.041,-35.974C-27.324,-36.085 -27.591,-36.196 -27.84,-36.304C-28.089,-36.414 -28.211,-36.669 -28.211,-37.075L-28.211,-38.505L-17.587,-38.505L-17.587,-37.075C-17.587,-36.669 -17.708,-36.414 -17.958,-36.304C-18.207,-36.196 -18.473,-36.085 -18.757,-35.974C-19.041,-35.866 -19.302,-35.68 -19.551,-35.425C-19.8,-35.167 -19.921,-34.726 -19.921,-34.106L-19.921,-21.343L-8.29,-21.343L-8.29,-34.106C-8.29,-34.726 -8.411,-35.167 -8.66,-35.425C-8.909,-35.68 -9.176,-35.866 -9.46,-35.974C-9.743,-36.085 -10.004,-36.196 -10.253,-36.304C-10.502,-36.414 -10.624,-36.669 -10.624,-37.075L-10.624,-38.505L0,-38.505Z" style="fill:white;fill-rule:nonzero;"/>
            </g>
            <g transform="matrix(0.575172,0,0,1.15879,388.466,-588.393)">
                <path d="M0,15.624L1.431,15.624C1.964,15.624 2.387,15.87 2.705,16.365C3.024,16.859 3.319,17.474 3.586,18.209C3.846,18.943 4.125,19.729 4.408,20.575C4.692,21.417 5.052,22.207 5.498,22.938C5.938,23.672 6.511,24.287 7.224,24.782C7.93,25.277 8.834,25.523 9.935,25.523C10.995,25.523 11.904,25.34 12.669,24.974C13.428,24.608 14.048,24.113 14.528,23.489C15.003,22.866 15.351,22.131 15.565,21.288C15.774,20.446 15.884,19.546 15.884,18.593C15.884,16.833 15.513,15.374 14.766,14.221C14.024,13.066 13.086,12.04 11.951,11.141C10.815,10.241 9.593,9.408 8.284,8.637C6.975,7.866 5.752,7.005 4.617,6.052C3.487,5.098 2.549,3.98 1.802,2.696C1.06,1.413 0.689,-0.183 0.689,-2.09C0.689,-3.409 0.881,-4.684 1.274,-5.914C1.663,-7.14 2.248,-8.222 3.024,-9.158C3.806,-10.094 4.779,-10.834 5.949,-11.386C7.119,-11.935 8.463,-12.211 9.987,-12.211C10.873,-12.211 11.644,-12.127 12.298,-11.962C12.953,-11.797 13.509,-11.605 13.972,-11.386C14.43,-11.164 14.818,-10.972 15.137,-10.807C15.455,-10.643 15.756,-10.562 16.04,-10.562C16.359,-10.562 16.602,-10.651 16.759,-10.834C16.921,-11.017 17.031,-11.221 17.106,-11.44L19.551,-11.44L19.551,-0.33L18.114,-0.33C17.616,-0.33 17.228,-0.567 16.944,-1.043C16.66,-1.52 16.405,-2.108 16.174,-2.804C15.942,-3.499 15.704,-4.27 15.455,-5.116C15.212,-5.959 14.882,-6.729 14.476,-7.425C14.065,-8.12 13.538,-8.708 12.883,-9.185C12.223,-9.662 11.365,-9.899 10.305,-9.899C8.956,-9.899 7.849,-9.44 6.986,-8.526C6.117,-7.608 5.683,-6.325 5.683,-4.675C5.683,-3.208 6.083,-1.97 6.876,-0.963C7.676,0.048 8.678,0.972 9.877,1.817C11.082,2.66 12.374,3.475 13.758,4.265C15.137,5.053 16.434,5.95 17.633,6.96C18.838,7.968 19.84,9.153 20.64,10.508C21.433,11.864 21.833,13.516 21.833,15.459C21.833,17.072 21.584,18.62 21.092,20.107C20.594,21.592 19.858,22.911 18.885,24.065C17.911,25.223 16.712,26.138 15.299,26.815C13.88,27.496 12.269,27.835 10.462,27.835C9.471,27.835 8.614,27.751 7.89,27.586C7.16,27.421 6.511,27.238 5.949,27.037C5.382,26.836 4.901,26.65 4.513,26.485C4.125,26.321 3.771,26.239 3.453,26.239C3.238,26.239 3.053,26.321 2.891,26.485C2.734,26.65 2.584,26.845 2.439,27.064L0,27.064L0,15.624Z" style="fill:white;fill-rule:nonzero;"/>
            </g>
            <g transform="matrix(0.575172,0,0,1.15879,409.723,-557.031)">
                <path d="M0,-38.505L0,-37.075C0,-36.669 -0.127,-36.414 -0.371,-36.304C-0.62,-36.196 -0.886,-36.085 -1.17,-35.974C-1.454,-35.866 -1.72,-35.68 -1.964,-35.425C-2.213,-35.167 -2.34,-34.726 -2.34,-34.106L-2.34,-4.399C-2.34,-3.776 -2.213,-3.338 -1.964,-3.08C-1.72,-2.825 -1.454,-2.639 -1.17,-2.531C-0.886,-2.421 -0.62,-2.3 -0.371,-2.174C-0.127,-2.045 0,-1.797 0,-1.431L0,0L-10.624,0L-10.624,-1.431C-10.624,-1.797 -10.502,-2.045 -10.253,-2.174C-10.004,-2.3 -9.743,-2.421 -9.46,-2.531C-9.176,-2.639 -8.909,-2.825 -8.66,-3.08C-8.411,-3.338 -8.29,-3.776 -8.29,-4.399L-8.29,-34.106C-8.29,-34.726 -8.411,-35.167 -8.66,-35.425C-8.909,-35.68 -9.176,-35.866 -9.46,-35.974C-9.743,-36.085 -10.004,-36.196 -10.253,-36.304C-10.502,-36.414 -10.624,-36.669 -10.624,-37.075L-10.624,-38.505L0,-38.505Z" style="fill:white;fill-rule:nonzero;"/>
            </g>
            <g transform="matrix(0.575172,0,0,1.15879,419.562,-557.031)">
                <path d="M0,-38.505C2.624,-38.505 4.895,-38.01 6.83,-37.021C8.759,-36.031 10.363,-34.672 11.638,-32.948C12.912,-31.224 13.856,-29.191 14.476,-26.842C15.096,-24.497 15.409,-21.966 15.409,-19.253C15.409,-16.539 15.096,-14.008 14.476,-11.663C13.856,-9.314 12.912,-7.278 11.638,-5.557C10.363,-3.833 8.759,-2.475 6.83,-1.485C4.895,-0.495 2.624,0 0,0L-12.483,0L-12.483,-1.431C-12.483,-1.797 -12.362,-2.045 -12.113,-2.174C-11.864,-2.3 -11.597,-2.421 -11.313,-2.531C-11.035,-2.639 -10.769,-2.825 -10.52,-3.08C-10.271,-3.338 -10.149,-3.776 -10.149,-4.399L-10.149,-34.106C-10.149,-34.726 -10.271,-35.167 -10.52,-35.425C-10.769,-35.68 -11.035,-35.866 -11.313,-35.974C-11.597,-36.085 -11.864,-36.196 -12.113,-36.304C-12.362,-36.414 -12.483,-36.669 -12.483,-37.075L-12.483,-38.505L0,-38.505ZM-4.194,-2.309L-0.741,-2.309C0.817,-2.309 2.19,-2.585 3.377,-3.137C4.559,-3.686 5.555,-4.622 6.349,-5.941C7.148,-7.261 7.739,-9.003 8.127,-11.168C8.521,-13.33 8.712,-16.026 8.712,-19.253C8.712,-22.479 8.521,-25.176 8.127,-27.337C7.739,-29.502 7.148,-31.245 6.349,-32.564C5.555,-33.884 4.559,-34.82 3.377,-35.368C2.19,-35.92 0.817,-36.196 -0.741,-36.196L-4.194,-36.196L-4.194,-2.309Z" style="fill:white;fill-rule:nonzero;"/>
            </g>
            <g transform="matrix(0.575172,0,0,1.15879,444.104,-602.544)">
                <path d="M0,39.276L-22.847,39.276L-22.847,37.846C-22.847,37.48 -22.725,37.231 -22.476,37.102C-22.227,36.976 -21.96,36.856 -21.677,36.745C-21.398,36.637 -21.132,36.451 -20.883,36.196C-20.634,35.938 -20.512,35.5 -20.512,34.877L-20.512,5.17C-20.512,4.55 -20.634,4.109 -20.883,3.851C-21.132,3.596 -21.398,3.41 -21.677,3.302C-21.96,3.192 -22.227,3.08 -22.476,2.972C-22.725,2.862 -22.847,2.607 -22.847,2.201L-22.847,0.771L-5.208,0.771C-4.356,0.771 -3.626,0.688 -3.007,0.522C-2.387,0.358 -1.807,0.183 -1.28,0L-1.28,11.882L-2.607,11.882C-2.995,11.882 -3.308,11.801 -3.534,11.636C-3.765,11.471 -3.951,11.222 -4.095,10.892C-4.235,10.563 -4.339,10.16 -4.414,9.684C-4.484,9.207 -4.571,8.673 -4.681,8.088C-4.82,7.318 -4.964,6.64 -5.104,6.052C-5.242,5.464 -5.474,4.979 -5.793,4.595C-6.111,4.208 -6.563,3.917 -7.148,3.713C-7.733,3.512 -8.521,3.41 -9.512,3.41L-14.557,3.41L-14.557,17.934L-11.852,17.934C-10.862,17.934 -10.201,17.75 -9.883,17.384C-9.564,17.016 -9.344,16.614 -9.222,16.173C-9.095,15.732 -8.973,15.33 -8.846,14.962C-8.724,14.596 -8.376,14.413 -7.814,14.413L-6.378,14.413L-6.378,24.645L-7.814,24.645C-8.376,24.645 -8.736,24.435 -8.875,24.012C-9.019,23.589 -9.158,23.121 -9.297,22.609C-9.442,22.096 -9.691,21.628 -10.045,21.205C-10.398,20.785 -11.07,20.573 -12.061,20.573L-14.557,20.573L-14.557,36.637L-9.407,36.637C-8.342,36.637 -7.467,36.535 -6.778,36.334C-6.088,36.133 -5.521,35.809 -5.074,35.371C-4.634,34.93 -4.287,34.352 -4.038,33.638C-3.794,32.921 -3.58,32.07 -3.4,31.08C-3.296,30.384 -3.198,29.797 -3.111,29.32C-3.024,28.843 -2.908,28.468 -2.763,28.192C-2.624,27.917 -2.427,27.715 -2.178,27.586C-1.935,27.458 -1.599,27.395 -1.17,27.395L0,27.395L0,39.276Z" style="fill:white;fill-rule:nonzero;"/>
            </g>
            <g transform="matrix(0.575172,0,0,1.15879,354.901,-524.905)">
                <path d="M0,-11.222C-0.921,-10.268 -1.582,-9.297 -1.987,-8.307C-2.398,-7.318 -2.636,-6.382 -2.705,-5.501C-1.182,-5.501 -0.093,-5.171 0.562,-4.511C1.216,-3.851 1.541,-2.973 1.541,-1.872C1.541,-1.503 1.483,-1.128 1.355,-0.745C1.234,-0.358 1.037,-0.001 0.77,0.329C0.51,0.659 0.179,0.926 -0.208,1.127C-0.603,1.328 -1.043,1.43 -1.541,1.43C-2.705,1.43 -3.655,1.016 -4.379,0.191C-5.109,-0.633 -5.469,-1.779 -5.469,-3.245C-5.469,-4.823 -5.15,-6.409 -4.513,-8.004C-3.875,-9.6 -2.902,-11.147 -1.593,-12.652L0,-11.222Z" style="fill:white;fill-rule:nonzero;"/>
            </g>
            <g transform="matrix(0.575172,0,0,1.15879,369.454,-502.849)">
                <path d="M0,-22.006C0,-20.024 -0.487,-18.356 -1.46,-16.998C-2.433,-15.642 -3.719,-14.377 -5.312,-13.205C-4.64,-12.689 -3.922,-12.113 -3.163,-11.471C-2.398,-10.829 -1.709,-10.085 -1.089,-9.243C-0.469,-8.4 0.046,-7.429 0.452,-6.328C0.857,-5.227 1.066,-3.998 1.066,-2.642C1.066,-1.248 0.904,0.146 0.585,1.537C0.267,2.932 -0.284,4.18 -1.06,5.277C-1.842,6.378 -2.896,7.277 -4.223,7.973C-5.55,8.669 -7.224,9.02 -9.245,9.02C-10.803,9.02 -12.182,8.771 -13.387,8.276C-14.592,7.781 -15.6,7.094 -16.417,6.213C-17.233,5.334 -17.847,4.288 -18.276,3.079C-18.699,1.867 -18.913,0.548 -18.913,-0.882C-18.913,-3.155 -18.357,-5.108 -17.239,-6.739C-16.121,-8.37 -14.447,-9.831 -12.217,-11.114C-12.929,-11.663 -13.619,-12.251 -14.291,-12.874C-14.963,-13.495 -15.565,-14.203 -16.098,-14.992C-16.631,-15.78 -17.054,-16.659 -17.373,-17.631C-17.691,-18.602 -17.847,-19.712 -17.847,-20.959C-17.847,-22.132 -17.662,-23.316 -17.292,-24.507C-16.921,-25.697 -16.365,-26.78 -15.617,-27.752C-14.876,-28.723 -13.938,-29.512 -12.802,-30.118C-11.672,-30.723 -10.323,-31.026 -8.764,-31.026C-7.276,-31.026 -5.984,-30.76 -4.889,-30.228C-3.788,-29.695 -2.879,-28.999 -2.149,-28.138C-1.425,-27.275 -0.886,-26.312 -0.533,-25.251C-0.179,-24.186 0,-23.104 0,-22.006M-3.29,0.164C-3.29,-0.865 -3.418,-1.779 -3.667,-2.588C-3.916,-3.392 -4.321,-4.163 -4.889,-4.898C-5.451,-5.63 -6.169,-6.373 -7.038,-7.126C-7.907,-7.876 -8.944,-8.694 -10.149,-9.573C-11.528,-8.619 -12.553,-7.408 -13.231,-5.941C-13.903,-4.475 -14.239,-2.697 -14.239,-0.607C-14.239,1.996 -13.7,3.904 -12.617,5.112C-11.539,6.324 -10.236,6.93 -8.712,6.93C-7.826,6.93 -7.05,6.729 -6.372,6.324C-5.7,5.922 -5.132,5.397 -4.675,4.756C-4.217,4.114 -3.87,3.391 -3.638,2.584C-3.406,1.778 -3.29,0.971 -3.29,0.164M-9.083,-28.936C-9.83,-28.936 -10.491,-28.789 -11.076,-28.495C-11.661,-28.201 -12.147,-27.817 -12.536,-27.341C-12.929,-26.864 -13.219,-26.312 -13.416,-25.692C-13.607,-25.068 -13.706,-24.444 -13.706,-23.82C-13.706,-23.085 -13.636,-22.408 -13.491,-21.784C-13.352,-21.16 -13.063,-20.5 -12.617,-19.805C-12.176,-19.106 -11.528,-18.356 -10.676,-17.55C-9.83,-16.743 -8.677,-15.771 -7.224,-14.635C-6.198,-15.585 -5.463,-16.623 -5.022,-17.741C-4.576,-18.86 -4.356,-20.299 -4.356,-22.059C-4.356,-24.405 -4.791,-26.138 -5.659,-27.257C-6.528,-28.375 -7.67,-28.936 -9.083,-28.936" style="fill:white;fill-rule:nonzero;"/>
            </g>
            <g transform="matrix(0.575172,0,0,1.15879,372.02,-538.802)">
                <path d="M0,39.275L0,35.59C0.707,34.306 1.547,32.996 2.52,31.658C3.493,30.317 4.495,28.953 5.521,27.559C6.552,26.164 7.56,24.764 8.55,23.351C9.541,21.939 10.438,20.518 11.232,19.087C12.031,17.657 12.669,16.209 13.144,14.742C13.625,13.275 13.862,11.809 13.862,10.343C13.862,4.84 12.252,2.09 9.031,2.09C7.896,2.09 6.946,2.393 6.187,2.999C5.422,3.604 5.045,4.291 5.045,5.062C5.045,5.463 5.185,5.802 5.468,6.078C5.752,6.354 6.053,6.627 6.372,6.903C6.691,7.179 6.992,7.5 7.276,7.866C7.56,8.235 7.698,8.711 7.698,9.296C7.698,10.031 7.438,10.681 6.905,11.248C6.372,11.818 5.538,12.103 4.408,12.103C3.273,12.103 2.421,11.689 1.859,10.864C1.292,10.04 1.008,8.984 1.008,7.701C1.008,6.894 1.193,6.033 1.564,5.116C1.935,4.201 2.502,3.364 3.267,2.612C4.026,1.862 4.976,1.239 6.105,0.744C7.241,0.249 8.55,0 10.039,0C11.771,0 13.277,0.303 14.557,0.908C15.832,1.514 16.874,2.294 17.691,3.245C18.502,4.201 19.116,5.299 19.522,6.546C19.927,7.794 20.136,9.041 20.136,10.286C20.136,11.902 19.886,13.347 19.388,14.631C18.89,15.917 18.236,17.144 17.425,18.316C16.608,19.492 15.664,20.637 14.58,21.756C13.503,22.875 12.368,24.065 11.18,25.331C9.992,26.596 8.799,27.954 7.594,29.4C6.389,30.851 5.237,32.492 4.142,34.324C5.028,34.36 6.048,34.39 7.195,34.408C8.347,34.426 9.616,34.435 10.995,34.435C12.165,34.435 13.092,34.288 13.787,33.994C14.476,33.7 15.015,33.326 15.403,32.867C15.791,32.407 16.075,31.913 16.255,31.382C16.434,30.851 16.591,30.357 16.735,29.898C16.874,29.439 17.054,29.064 17.262,28.77C17.477,28.476 17.813,28.329 18.276,28.329L19.707,28.329L19.284,39.275L0,39.275Z" style="fill:white;fill-rule:nonzero;"/>
            </g>
            <g transform="matrix(0.575172,0,0,1.15879,433.626,-894.6)">
                <path d="M0,227.959L-14.082,227.959L-14.082,190.501L-40.358,190.501L-40.358,227.959L-54.458,227.959L-54.458,190.501L-82.646,190.501L-82.646,227.959L-97.266,227.959L-97.266,190.501L-124.805,190.501L-124.805,227.959L-139.866,227.959L-139.866,190.501L-167.237,190.501L-167.237,227.959L-182.003,227.959L-182.003,190.501L-208.627,190.501L-208.627,227.959L-223.265,227.959L-223.265,17.57L-217.808,17.57C-216.725,7.593 -208.708,0 -199.011,0C-189.233,0 -181.163,7.713 -180.184,17.57L-43.04,17.57C-41.957,7.593 -33.946,0 -24.254,0C-14.476,0 -6.401,7.713 -5.422,17.57L0,17.57L0,227.959ZM-9.634,223.353L-4.449,223.353L-4.449,22.176L-9.772,22.176L-9.772,19.873C-9.772,11.327 -16.266,4.607 -24.254,4.607C-32.225,4.607 -38.713,11.327 -38.713,19.585L-38.713,21.888L-40.938,22.176L-184.535,22.176L-184.535,19.873C-184.535,11.327 -191.028,4.607 -199.011,4.607C-206.987,4.607 -213.481,11.327 -213.481,19.585L-213.481,21.888L-215.705,22.176L-218.816,22.176L-218.816,223.353L-213.076,223.353L-213.076,185.895L-177.554,185.895L-177.554,223.353L-171.686,223.353L-171.686,185.895L-135.418,185.895L-135.418,223.353L-129.254,223.353L-129.254,185.895L-92.818,185.895L-92.818,223.353L-87.094,223.353L-87.094,185.895L-50.009,185.895L-50.009,223.353L-44.807,223.353L-44.807,185.895L-9.634,185.895L-9.634,223.353Z" style="fill:white;fill-rule:nonzero;"/>
            </g>
            <g transform="matrix(0.575172,0,0,1.15879,200.807,-1914.2)">
                <path d="M208.737,988.711L202.127,988.711L202.127,973.315L208.737,973.315L208.737,988.711ZM213.186,968.708L197.679,968.708L197.679,993.316L213.186,993.316L213.186,968.708Z" style="fill:white;fill-rule:nonzero;"/>
            </g>
            <g transform="matrix(0.575172,0,0,1.15879,200.807,-2033.05)">
                <path d="M208.737,1039.99L202.127,1039.99L202.127,1024.6L208.737,1024.6L208.737,1039.99ZM213.186,1019.99L197.679,1019.99L197.679,1044.6L213.186,1044.6L213.186,1019.99Z" style="fill:white;fill-rule:nonzero;"/>
            </g>
            <g transform="matrix(0.575172,0,0,1.15879,200.807,-2033.05)">
                <path d="M383.841,1039.99L377.231,1039.99L377.231,1024.6L383.841,1024.6L383.841,1039.99ZM388.29,1019.99L372.783,1019.99L372.783,1044.6L388.29,1044.6L388.29,1019.99Z" style="fill:white;fill-rule:nonzero;"/>
            </g>
            <g transform="matrix(0.575172,0,0,1.15879,200.807,-1824)">
                <path d="M208.737,949.788L202.127,949.788L202.127,934.398L208.737,934.398L208.737,949.788ZM213.186,929.792L197.679,929.792L197.679,954.394L213.186,954.394L213.186,929.792Z" style="fill:white;fill-rule:nonzero;"/>
            </g>
            <g transform="matrix(0.575172,0,0,1.15879,200.807,-2032.84)">
                <path d="M262.193,1039.9L235.697,1039.9L235.697,1024.52L262.193,1024.52L262.193,1039.9ZM266.641,1019.91L231.247,1019.91L231.247,1044.51L266.641,1044.51L266.641,1019.91Z" style="fill:white;fill-rule:nonzero;"/>
            </g>
            <g transform="matrix(0.575172,0,0,1.15879,200.807,-2032.84)">
                <path d="M305.777,1039.9L279.293,1039.9L279.293,1024.52L305.777,1024.52L305.777,1039.9ZM310.226,1019.91L274.844,1019.91L274.844,1044.51L310.226,1044.51L310.226,1019.91Z" style="fill:white;fill-rule:nonzero;"/>
            </g>
            <g transform="matrix(0.575172,0,0,1.15879,200.807,-2032.84)">
                <path d="M349.889,1039.9L323.422,1039.9L323.422,1024.52L349.889,1024.52L349.889,1039.9ZM354.338,1019.91L318.973,1019.91L318.973,1044.51L354.338,1044.51L354.338,1019.91Z" style="fill:white;fill-rule:nonzero;"/>
            </g>
            <g transform="matrix(0.575172,0,0,1.15879,432.346,-810.871)">
                <path d="M0,99.605L-44.471,99.605L-44.471,4.606L-175.37,4.606L-175.37,99.605L-218.816,99.605L-218.816,94.999L-179.819,94.999L-179.819,0L-40.022,0L-40.022,94.999L0,94.999L0,99.605Z" style="fill:white;fill-rule:nonzero;"/>
            </g>
            <g transform="matrix(0.575172,0,0,1.15879,200.807,-1823.79)">
                <path d="M263.849,949.701L237.353,949.701L237.353,934.308L263.849,934.308L263.849,949.701ZM268.298,929.702L232.904,929.702L232.904,954.307L268.298,954.307L268.298,929.702Z" style="fill:white;fill-rule:nonzero;"/>
            </g>
            <g transform="matrix(0.575172,0,0,1.15879,200.807,-1823.79)">
                <path d="M348.024,949.701L322.09,949.701L322.09,934.308L348.024,934.308L348.024,949.701ZM352.473,929.702L317.641,929.702L317.641,954.307L352.473,954.307L352.473,929.702Z" style="fill:white;fill-rule:nonzero;"/>
            </g>
            <g transform="matrix(0.575172,0,0,1.15879,344.949,-768.201)">
                <path d="M0,-15.396C7.305,-15.396 13.242,-9.249 13.242,-1.695L13.242,0L-13.254,0L-13.254,-1.695C-13.254,-9.249 -7.305,-15.396 0,-15.396M0,-20.002C-9.772,-20.002 -17.703,-11.812 -17.703,-1.695L-17.703,4.606L17.691,4.606L17.691,-1.695C17.691,-11.812 9.749,-20.002 0,-20.002" style="fill:white;fill-rule:nonzero;"/>
            </g>
            <g transform="matrix(0.575172,0,0,1.15879,369.078,-768.201)">
                <path d="M0,-15.396C7.305,-15.396 13.242,-9.249 13.242,-1.695L13.242,0L-13.237,0L-13.237,-1.695C-13.237,-9.249 -7.299,-15.396 0,-15.396M0,-20.002C-9.767,-20.002 -17.685,-11.812 -17.685,-1.695L-17.685,4.606L17.691,4.606L17.691,-1.695C17.691,-11.812 9.767,-20.002 0,-20.002" style="fill:white;fill-rule:nonzero;"/>
            </g>
            <g transform="matrix(0.575172,0,0,1.15879,393.52,-768.201)">
                <path d="M0,-15.396C7.305,-15.396 13.242,-9.249 13.242,-1.695L13.242,0L-13.237,0L-13.237,-1.695C-13.237,-9.249 -7.299,-15.396 0,-15.396M0,-20.002C-9.767,-20.002 -17.686,-11.812 -17.686,-1.695L-17.686,4.606L17.691,4.606L17.691,-1.695C17.691,-11.812 9.767,-20.002 0,-20.002" style="fill:white;fill-rule:nonzero;"/>
            </g>
            <g transform="matrix(0.575172,0,0,1.15879,200.807,-1914.2)">
                <path d="M383.841,988.711L377.231,988.711L377.231,973.315L383.841,973.315L383.841,988.711ZM388.29,968.708L372.783,968.708L372.783,993.316L388.29,993.316L388.29,968.708Z" style="fill:white;fill-rule:nonzero;"/>
            </g>
            <g transform="matrix(0.575172,0,0,1.15879,200.807,-1824)">
                <path d="M383.841,949.788L377.231,949.788L377.231,934.398L383.841,934.398L383.841,949.788ZM388.29,929.792L372.783,929.792L372.783,954.394L388.29,954.394L388.29,929.792Z" style="fill:white;fill-rule:nonzero;"/>
            </g>
            <g transform="matrix(0.575172,0,0,1.15879,371.563,-693.927)">
                <path d="M0,-40.733L0,-7.233L20.831,-7.233L20.831,-0.001L-28.79,-0.001L-28.79,-7.233L-7.467,-7.233L-7.467,-40.733L0,-40.733ZM4.449,-45.339L-11.916,-45.339L-11.916,-11.84L-33.239,-11.84L-33.239,4.606L25.28,4.606L25.28,-11.84L4.449,-11.84L4.449,-45.339Z" style="fill:white;fill-rule:nonzero;"/>
            </g>
        </g>
    </g>
</svg>
