<?xml version="1.0" encoding="UTF-8" standalone="no"?>
<!DOCTYPE svg PUBLIC "-//W3C//DTD SVG 1.1//EN" "http://www.w3.org/Graphics/SVG/1.1/DTD/svg11.dtd">
<svg width="100%" height="100%" viewBox="0 0 1200 550" version="1.1" xmlns="http://www.w3.org/2000/svg" xmlns:xlink="http://www.w3.org/1999/xlink" xml:space="preserve" xmlns:serif="http://www.serif.com/" style="fill-rule:evenodd;clip-rule:evenodd;stroke-linejoin:round;stroke-miterlimit:2;">
    <g transform="matrix(1,0,0,1,-3083.58,-4973.79)">
        <g id="Artboard1" transform="matrix(2.01573,0,0,1.00052,2939.05,5943.65)">
            <rect x="71.704" y="-969.355" width="595.317" height="549.714" style="fill:white;"/>
            <g transform="matrix(0.528618,0,0,1.065,433.742,-839.15)">
                <path d="M0,-0.06L11.41,-11.862C11.777,-12.241 12.218,-12.177 12.733,-11.67C13.253,-11.165 13.329,-10.725 12.964,-10.346L1.554,1.456C0.396,2.655 -0.182,3.845 -0.182,5.025C-0.181,6.208 0.361,7.326 1.445,8.383C2.527,9.441 3.657,9.953 4.831,9.92C6.006,9.887 7.173,9.273 8.331,8.074L19.74,-3.728C20.106,-4.106 20.549,-4.043 21.066,-3.538C21.583,-3.031 21.66,-2.589 21.294,-2.212L9.885,9.59C8.194,11.339 6.503,12.181 4.815,12.112C3.128,12.044 1.54,11.281 0.049,9.826C-1.44,8.371 -2.244,6.796 -2.361,5.104C-2.479,3.412 -1.691,1.689 0,-0.06" style="fill:rgb(36,31,33);fill-rule:nonzero;"/>
            </g>
            <g transform="matrix(0.528618,0,0,1.065,444.232,-811.582)">
                <path d="M0,-4.876L8.143,-11.002C10.068,-12.451 11.851,-13.017 13.495,-12.701C15.136,-12.385 16.574,-11.4 17.806,-9.744C19.053,-8.073 19.624,-6.416 19.52,-4.773C19.42,-3.131 18.703,-1.81 17.374,-0.81C16.776,-0.362 16.264,-0.428 15.83,-1.009C15.41,-1.572 15.413,-2.028 15.838,-2.375C17.773,-4.214 17.902,-6.261 16.224,-8.513C14.363,-11.012 12.1,-11.261 9.44,-9.258L1.296,-3.133C-0.052,-2.12 -0.816,-1.035 -0.996,0.115C-1.177,1.267 -0.821,2.441 0.068,3.639C0.96,4.834 1.982,5.509 3.133,5.66C4.283,5.811 5.531,5.377 6.881,4.364L10.006,2.012L7.371,-1.524C7.227,-1.719 7.187,-1.928 7.251,-2.155C7.316,-2.382 7.451,-2.574 7.662,-2.732C7.854,-2.877 8.068,-2.947 8.303,-2.945C8.536,-2.942 8.725,-2.846 8.869,-2.651L12.33,1.995C12.643,2.418 12.572,2.8 12.119,3.142L8.178,6.106C6.235,7.569 4.442,8.141 2.799,7.826C1.156,7.51 -0.287,6.516 -1.532,4.843C-2.779,3.171 -3.321,1.498 -3.158,-0.173C-2.996,-1.846 -1.946,-3.414 0,-4.876" style="fill:rgb(36,31,33);fill-rule:nonzero;"/>
            </g>
            <g transform="matrix(0.528618,0,0,1.065,449.968,-788.44)">
                <path d="M0,-0.057L19.736,-10.584C19.967,-10.709 20.192,-10.716 20.412,-10.608C20.629,-10.501 20.799,-10.329 20.921,-10.097L23.444,-5.321C23.916,-4.426 24.259,-3.614 24.472,-2.882C24.685,-2.15 24.768,-1.404 24.725,-0.645C24.679,0.113 24.402,0.82 23.894,1.477C23.388,2.134 22.64,2.724 21.654,3.249C20.455,3.889 19.324,4.207 18.258,4.202C17.19,4.199 16.294,3.907 15.566,3.324C15.69,4.501 15.503,5.554 15.002,6.48C14.503,7.408 13.556,8.241 12.165,8.983L11.644,9.261C9.557,10.374 7.763,10.659 6.263,10.116C4.762,9.571 3.551,8.427 2.627,6.679L-0.264,1.202C-0.408,0.93 -0.447,0.678 -0.384,0.446C-0.323,0.212 -0.195,0.046 0,-0.057M2.042,1.279L4.273,5.502C5.706,8.222 7.856,8.819 10.715,7.292L11.208,7.03C13.949,5.567 14.605,3.475 13.169,0.757L10.939,-3.466L2.042,1.279ZM12.591,-4.347L14.606,-0.531C15.334,0.848 16.15,1.7 17.053,2.027C17.956,2.354 19.085,2.158 20.438,1.436C21.693,0.766 22.384,-0.051 22.507,-1.011C22.63,-1.973 22.343,-3.115 21.644,-4.435L19.692,-8.134L12.591,-4.347Z" style="fill:rgb(36,31,33);fill-rule:nonzero;"/>
            </g>
            <g transform="matrix(0.528618,0,0,1.065,459.214,-753.928)">
                <path d="M0,-9.662L9.621,-12.98C11.895,-13.766 13.767,-13.755 15.233,-12.948C16.699,-12.142 17.771,-10.75 18.445,-8.774C19.121,-6.799 19.126,-5.041 18.461,-3.498C17.797,-1.955 16.326,-0.793 14.051,-0.007L4.432,3.311C2.135,4.104 0.253,4.097 -1.212,3.291C-2.681,2.482 -3.75,1.092 -4.425,-0.884C-5.099,-2.859 -5.105,-4.618 -4.441,-6.159C-3.775,-7.702 -2.295,-8.87 0,-9.662M0.703,-7.604C-2.461,-6.511 -3.541,-4.489 -2.533,-1.537C-1.523,1.415 0.565,2.346 3.728,1.253L13.348,-2.065C16.494,-3.151 17.561,-5.17 16.553,-8.121C15.546,-11.075 13.467,-12.007 10.324,-10.922L0.703,-7.604Z" style="fill:rgb(36,31,33);fill-rule:nonzero;"/>
            </g>
            <g transform="matrix(0.528618,0,0,1.065,460.345,-717.867)">
                <path d="M0,-16.199C0.108,-16.217 0.185,-16.221 0.231,-16.205L23.358,-13.272C23.879,-13.209 24.2,-12.832 24.321,-12.144C24.441,-11.456 24.267,-10.982 23.798,-10.722L2.981,-0.085C2.959,-0.082 2.929,-0.072 2.891,-0.053C2.852,-0.035 2.822,-0.023 2.802,-0.021C2.556,0.022 2.321,-0.08 2.099,-0.332C1.873,-0.583 1.736,-0.859 1.684,-1.162C1.612,-1.573 1.748,-1.876 2.09,-2.071L6.81,-4.439L5.249,-13.412L0.004,-14.041C-0.374,-14.065 -0.604,-14.317 -0.688,-14.797C-0.741,-15.103 -0.705,-15.4 -0.577,-15.693C-0.452,-15.985 -0.258,-16.152 0,-16.199M7.187,-13.178L8.555,-5.315L20.924,-11.528L7.187,-13.178Z" style="fill:rgb(36,31,33);fill-rule:nonzero;"/>
            </g>
            <g transform="matrix(0.528618,0,0,1.065,473.968,-692.746)">
                <path d="M0,-14.862C0.258,-14.871 0.492,-14.806 0.702,-14.669C0.909,-14.533 1.017,-14.332 1.027,-14.069L1.424,-0.853C1.435,-0.589 1.344,-0.383 1.155,-0.233C0.964,-0.084 0.741,-0.005 0.482,0.002C0.203,0.009 -0.041,-0.053 -0.25,-0.19C-0.459,-0.327 -0.567,-0.526 -0.575,-0.79L-0.741,-6.295L-21.861,-5.649C-22.123,-5.64 -22.334,-5.746 -22.494,-5.96C-22.653,-6.176 -22.739,-6.425 -22.746,-6.711C-22.755,-7.018 -22.688,-7.28 -22.539,-7.492C-22.392,-7.707 -22.188,-7.817 -21.926,-7.824L-0.807,-8.47L-0.974,-14.007C-0.982,-14.249 -0.891,-14.451 -0.702,-14.61C-0.513,-14.77 -0.28,-14.853 0,-14.862" style="fill:rgb(36,31,33);fill-rule:nonzero;"/>
            </g>
            <g transform="matrix(0.528618,0,0,1.065,460.956,-641.088)">
                <path d="M0,-18.074L21.8,-13.292C22.054,-13.236 22.231,-13.096 22.327,-12.872C22.426,-12.648 22.446,-12.408 22.389,-12.149L19.899,-0.681C19.782,-0.145 19.414,0.056 18.794,-0.079C18.517,-0.14 18.291,-0.263 18.119,-0.446C17.946,-0.632 17.888,-0.852 17.943,-1.109L20.182,-11.419L11.367,-13.352L10.269,-8.295C10.212,-8.037 10.078,-7.859 9.867,-7.758C9.655,-7.66 9.408,-7.639 9.132,-7.701C8.554,-7.827 8.325,-8.159 8.441,-8.695L9.541,-13.753L0.661,-15.701L-1.577,-5.392C-1.63,-5.157 -1.768,-4.984 -1.992,-4.876C-2.217,-4.769 -2.469,-4.744 -2.747,-4.804C-3.388,-4.944 -3.651,-5.284 -3.532,-5.821L-1.043,-17.29C-0.987,-17.547 -0.862,-17.756 -0.671,-17.918C-0.48,-18.078 -0.256,-18.13 0,-18.074" style="fill:rgb(36,31,33);fill-rule:nonzero;"/>
            </g>
            <g transform="matrix(0.528618,0,0,1.065,457.332,-611.692)">
                <path d="M0,-19.522L20.86,-11.385C21.063,-11.306 21.202,-11.15 21.278,-10.919C21.354,-10.691 21.341,-10.444 21.239,-10.176L19.136,-4.737C18.384,-2.789 17.257,-1.437 15.755,-0.679C14.255,0.079 12.382,0.021 10.138,-0.853L0.84,-4.48C-1.423,-5.364 -2.855,-6.593 -3.452,-8.172C-4.05,-9.748 -3.975,-11.512 -3.222,-13.457L-1.121,-18.899C-1.018,-19.165 -0.856,-19.355 -0.637,-19.469C-0.417,-19.583 -0.204,-19.601 0,-19.522M0.319,-17.063L-1.356,-12.731C-1.893,-11.336 -1.921,-10.103 -1.43,-9.028C-0.942,-7.954 0.076,-7.114 1.625,-6.508L10.923,-2.881C12.473,-2.278 13.784,-2.208 14.855,-2.675C15.927,-3.14 16.733,-4.071 17.27,-5.463L18.945,-9.798L0.319,-17.063Z" style="fill:rgb(36,31,33);fill-rule:nonzero;"/>
            </g>
            <g transform="matrix(0.528618,0,0,1.065,451.311,-591.255)">
                <path d="M0,-12.771L19.621,-2.029C20.082,-1.777 20.141,-1.332 19.794,-0.695C19.45,-0.057 19.047,0.135 18.585,-0.119L-1.036,-10.859C-1.267,-10.985 -1.397,-11.181 -1.426,-11.448C-1.456,-11.716 -1.403,-11.975 -1.267,-12.225C-1.12,-12.496 -0.931,-12.686 -0.698,-12.796C-0.465,-12.906 -0.23,-12.897 0,-12.771" style="fill:rgb(36,31,33);fill-rule:nonzero;"/>
            </g>
            <g transform="matrix(0.528618,0,0,1.065,456.584,-571.845)">
                <path d="M0,-4.25C0.21,-4.098 0.355,-3.903 0.438,-3.667C0.521,-3.432 0.485,-3.206 0.332,-2.993L-7.372,7.728C-7.524,7.941 -7.72,8.048 -7.961,8.051C-8.201,8.053 -8.427,7.978 -8.636,7.826C-8.864,7.662 -9.018,7.461 -9.101,7.224C-9.181,6.989 -9.146,6.765 -8.995,6.549L-5.785,2.087L-22.917,-10.346C-23.129,-10.502 -23.233,-10.712 -23.23,-10.98C-23.224,-11.249 -23.141,-11.5 -22.973,-11.731C-22.794,-11.98 -22.582,-12.145 -22.336,-12.223C-22.089,-12.303 -21.861,-12.265 -21.648,-12.11L-4.518,0.321L-1.292,-4.169C-1.149,-4.366 -0.957,-4.471 -0.711,-4.481C-0.463,-4.491 -0.226,-4.415 0,-4.25" style="fill:rgb(36,31,33);fill-rule:nonzero;"/>
            </g>
            <g transform="matrix(0.528618,0,0,1.065,439.372,-542.026)">
                <path d="M0,-22.395C0.189,-22.211 0.306,-21.949 0.355,-21.606C0.408,-21.265 0.348,-21.009 0.179,-20.835C0.057,-20.709 -0.198,-20.652 -0.584,-20.665L-1.908,-20.674C-2.387,-20.684 -2.974,-20.53 -3.667,-20.213C-4.359,-19.895 -5.035,-19.397 -5.692,-18.722C-6.78,-17.607 -7.345,-16.471 -7.387,-15.312C-7.429,-14.154 -6.927,-13.059 -5.879,-12.029C-5.176,-11.337 -4.438,-10.893 -3.661,-10.698C-2.887,-10.505 -2.144,-10.505 -1.436,-10.698C-0.725,-10.861 0.015,-11.119 0.785,-11.467L3.095,-12.518C3.864,-12.868 4.62,-13.115 5.36,-13.263C6.101,-13.411 6.89,-13.357 7.729,-13.102C8.567,-12.846 9.368,-12.341 10.134,-11.587C10.951,-10.783 11.503,-9.937 11.796,-9.052C12.085,-8.165 12.128,-7.316 11.921,-6.503C11.714,-5.692 11.414,-4.949 11.021,-4.276C10.625,-3.602 10.137,-2.967 9.554,-2.37C8.621,-1.413 7.608,-0.648 6.515,-0.078C5.424,0.493 4.674,0.578 4.267,0.179C4.081,-0.006 3.956,-0.262 3.889,-0.587C3.825,-0.912 3.883,-1.17 4.065,-1.358C4.16,-1.452 4.406,-1.562 4.812,-1.686C5.215,-1.811 5.724,-2.042 6.335,-2.378C6.946,-2.715 7.55,-3.189 8.147,-3.801C9.113,-4.791 9.697,-5.815 9.904,-6.874C10.109,-7.935 9.727,-8.94 8.759,-9.893C8.088,-10.556 7.337,-10.918 6.507,-10.979C5.681,-11.039 4.882,-10.88 4.113,-10.499C3.344,-10.119 2.489,-9.728 1.548,-9.331C0.609,-8.932 -0.304,-8.601 -1.19,-8.334C-2.077,-8.07 -3.056,-8.086 -4.126,-8.386C-5.195,-8.686 -6.239,-9.336 -7.254,-10.335C-8.855,-11.912 -9.621,-13.542 -9.548,-15.227C-9.477,-16.911 -8.698,-18.513 -7.215,-20.036C-5.882,-21.401 -4.475,-22.263 -2.991,-22.618C-1.507,-22.973 -0.51,-22.899 0,-22.395" style="fill:rgb(36,31,33);fill-rule:nonzero;"/>
            </g>
            <g transform="matrix(0.528618,0,0,1.065,427.731,-525.946)">
                <path d="M0,7.579C0.137,7.798 0.197,8.036 0.182,8.285C0.169,8.533 0.051,8.728 -0.172,8.867L-11.369,15.811C-11.591,15.951 -11.816,15.975 -12.037,15.884C-12.262,15.793 -12.441,15.638 -12.575,15.416C-12.723,15.177 -12.79,14.933 -12.776,14.682C-12.763,14.432 -12.643,14.239 -12.42,14.1L-7.757,11.207L-18.855,-6.862C-18.992,-7.088 -19.008,-7.323 -18.901,-7.569C-18.796,-7.817 -18.623,-8.016 -18.38,-8.165C-18.121,-8.328 -17.861,-8.396 -17.605,-8.376C-17.347,-8.354 -17.149,-8.231 -17.011,-8.005L-5.914,10.064L-1.225,7.156C-1.02,7.027 -0.801,7.007 -0.568,7.091C-0.338,7.176 -0.149,7.339 0,7.579" style="fill:rgb(36,31,33);fill-rule:nonzero;"/>
            </g>
            <g transform="matrix(0.528618,0,0,1.065,409.891,-499.926)">
                <path d="M0,-16.357L6.337,-1.185C6.538,-0.699 6.309,-0.315 5.644,-0.035C4.978,0.246 4.543,0.144 4.339,-0.342L-1.995,-15.515C-2.64,-17.057 -3.503,-18.056 -4.583,-18.519C-5.665,-18.98 -6.902,-18.917 -8.296,-18.33C-9.688,-17.743 -10.6,-16.9 -11.028,-15.799C-11.458,-14.702 -11.351,-13.381 -10.71,-11.841L-4.374,3.332C-4.171,3.818 -4.401,4.203 -5.067,4.484C-5.732,4.763 -6.168,4.661 -6.37,4.175L-12.706,-10.998C-13.645,-13.248 -13.753,-15.141 -13.031,-16.673C-12.305,-18.206 -10.986,-19.377 -9.07,-20.185C-7.152,-20.993 -5.397,-21.12 -3.803,-20.565C-2.206,-20.01 -0.938,-18.607 0,-16.357" style="fill:rgb(36,31,33);fill-rule:nonzero;"/>
            </g>
            <g transform="matrix(0.528618,0,0,1.065,395.583,-492.573)">
                <path d="M0,-13.153L2.42,-3.226C2.993,-0.877 2.815,0.994 1.883,2.39C0.951,3.785 -0.514,4.729 -2.511,5.221C-4.529,5.719 -6.27,5.599 -7.734,4.863C-9.199,4.123 -10.126,2.944 -10.523,1.322C-10.7,0.596 -10.438,0.148 -9.736,-0.025C-9.057,-0.193 -8.641,-0.013 -8.489,0.517C-7.562,3.026 -5.738,3.945 -3.019,3.276C-0.002,2.532 1.11,0.539 0.319,-2.706L-2.103,-12.636C-2.505,-14.279 -3.198,-15.41 -4.181,-16.028C-5.164,-16.645 -6.379,-16.776 -7.824,-16.422C-9.267,-16.064 -10.285,-15.385 -10.874,-14.38C-11.461,-13.374 -11.555,-12.049 -11.153,-10.405L-10.223,-6.594L-5.955,-7.646C-5.719,-7.705 -5.513,-7.658 -5.329,-7.512C-5.149,-7.364 -5.025,-7.163 -4.962,-6.906C-4.905,-6.672 -4.924,-6.446 -5.017,-6.231C-5.111,-6.016 -5.274,-5.88 -5.51,-5.821L-11.118,-4.439C-11.628,-4.314 -11.951,-4.529 -12.085,-5.083L-13.258,-9.887C-13.836,-12.257 -13.657,-14.141 -12.726,-15.536C-11.796,-16.931 -10.317,-17.876 -8.302,-18.374C-6.282,-18.872 -4.54,-18.718 -3.072,-17.915C-1.602,-17.111 -0.578,-15.523 0,-13.153" style="fill:rgb(36,31,33);fill-rule:nonzero;"/>
            </g>
            <g transform="matrix(0.528618,0,0,1.065,380.503,-482.412)">
                <path d="M0,-23.061L1.884,-0.683C1.908,-0.421 1.828,-0.211 1.643,-0.053C1.461,0.107 1.236,0.198 0.976,0.221L-4.388,0.676C-5.389,0.763 -6.267,0.76 -7.023,0.669C-7.776,0.578 -8.491,0.365 -9.167,0.025C-9.842,-0.315 -10.381,-0.847 -10.783,-1.575C-11.184,-2.302 -11.433,-3.225 -11.527,-4.341C-11.641,-5.7 -11.487,-6.871 -11.066,-7.854C-10.644,-8.839 -10.023,-9.555 -9.205,-9.999C-10.332,-10.344 -11.22,-10.931 -11.871,-11.758C-12.524,-12.585 -12.917,-13.787 -13.049,-15.363L-13.099,-15.955C-13.298,-18.321 -12.854,-20.091 -11.768,-21.264C-10.681,-22.437 -9.158,-23.108 -7.198,-23.275L-1.049,-23.799C-0.744,-23.824 -0.498,-23.764 -0.31,-23.613C-0.121,-23.464 -0.019,-23.279 0,-23.061M-2.025,-21.697L-6.766,-21.293C-9.816,-21.034 -11.206,-19.283 -10.932,-16.041L-10.885,-15.482C-10.623,-12.373 -8.967,-10.946 -5.916,-11.206L-1.174,-11.609L-2.025,-21.697ZM-1.017,-9.737L-5.3,-9.372C-6.848,-9.24 -7.946,-8.822 -8.602,-8.115C-9.257,-7.408 -9.518,-6.288 -9.388,-4.754C-9.267,-3.331 -8.794,-2.373 -7.961,-1.881C-7.131,-1.389 -5.971,-1.208 -4.492,-1.333L-0.338,-1.686L-1.017,-9.737Z" style="fill:rgb(36,31,33);fill-rule:nonzero;"/>
            </g>
            <g transform="matrix(0.528618,0,0,1.065,365.836,-489.573)">
                <path d="M0,-9.133L-0.76,1.06C-0.941,3.47 -1.688,5.194 -3.005,6.232C-4.321,7.267 -6.015,7.707 -8.088,7.551C-10.161,7.395 -11.769,6.706 -12.92,5.484C-14.066,4.263 -14.551,2.445 -14.371,0.034L-13.61,-10.159C-13.431,-12.592 -12.681,-14.328 -11.364,-15.364C-10.048,-16.399 -8.353,-16.84 -6.283,-16.684C-4.209,-16.528 -2.598,-15.838 -1.451,-14.618C-0.303,-13.395 0.181,-11.567 0,-9.133M-2.16,-9.297C-1.911,-12.652 -3.334,-14.445 -6.43,-14.678C-9.528,-14.91 -11.203,-13.351 -11.453,-9.997L-12.212,0.197C-12.461,3.528 -11.035,5.311 -7.939,5.545C-4.841,5.778 -3.168,4.228 -2.922,0.896L-2.16,-9.297Z" style="fill:rgb(36,31,33);fill-rule:nonzero;"/>
            </g>
            <g transform="matrix(0.528618,0,0,1.065,352.189,-491.031)">
                <path d="M0,-16.574C-0.025,-16.467 -0.052,-16.395 -0.084,-16.357L-11.889,3.842C-12.152,4.3 -12.624,4.448 -13.3,4.287C-13.976,4.126 -14.341,3.778 -14.394,3.243L-15.907,-20.179C-15.903,-20.2 -15.901,-20.232 -15.903,-20.274C-15.903,-20.318 -15.901,-20.349 -15.897,-20.369C-15.838,-20.615 -15.651,-20.79 -15.333,-20.896C-15.017,-21.005 -14.707,-21.022 -14.411,-20.952C-14.005,-20.855 -13.782,-20.611 -13.741,-20.216L-13.435,-14.926L-4.617,-12.827L-1.973,-17.422C-1.803,-17.761 -1.481,-17.875 -1.009,-17.764C-0.709,-17.692 -0.451,-17.54 -0.231,-17.307C-0.016,-17.076 0.063,-16.832 0,-16.574M-5.595,-11.129L-13.323,-12.967L-12.524,0.907L-5.595,-11.129Z" style="fill:rgb(36,31,33);fill-rule:nonzero;"/>
            </g>
            <g transform="matrix(0.528618,0,0,1.065,334.776,-518.937)">
                <path d="M0,23.619C-0.093,23.861 -0.243,24.051 -0.45,24.191C-0.657,24.33 -0.883,24.352 -1.127,24.256L-13.383,19.446C-13.628,19.349 -13.781,19.185 -13.843,18.951C-13.904,18.72 -13.89,18.483 -13.795,18.24C-13.693,17.978 -13.539,17.776 -13.332,17.637C-13.125,17.499 -12.899,17.476 -12.655,17.572L-7.551,19.576L0.134,-0.205C0.229,-0.451 0.408,-0.606 0.666,-0.669C0.925,-0.733 1.188,-0.713 1.453,-0.609C1.738,-0.496 1.95,-0.332 2.088,-0.111C2.227,0.109 2.247,0.34 2.151,0.587L-5.534,20.367L-0.4,22.382C-0.175,22.471 -0.028,22.632 0.045,22.87C0.117,23.108 0.101,23.357 0,23.619" style="fill:rgb(36,31,33);fill-rule:nonzero;"/>
            </g>
            <g transform="matrix(0.528618,0,0,1.065,317.959,-525.993)">
                <path d="M0,-10.227L-12.916,8.056C-13.067,8.273 -13.262,8.381 -13.505,8.383C-13.748,8.384 -13.977,8.31 -14.193,8.156L-23.716,1.361C-24.162,1.045 -24.201,0.625 -23.834,0.104C-23.671,-0.129 -23.47,-0.288 -23.234,-0.376C-22.998,-0.464 -22.774,-0.432 -22.557,-0.278L-13.998,5.829L-8.775,-1.565L-12.975,-4.561C-13.189,-4.715 -13.298,-4.909 -13.307,-5.143C-13.316,-5.379 -13.239,-5.613 -13.073,-5.846C-12.732,-6.329 -12.337,-6.411 -11.892,-6.095L-7.691,-3.097L-2.431,-10.546L-10.992,-16.653C-11.188,-16.793 -11.292,-16.988 -11.303,-17.24C-11.312,-17.49 -11.236,-17.732 -11.073,-17.966C-10.691,-18.501 -10.278,-18.611 -9.834,-18.294L-0.307,-11.498C-0.095,-11.347 0.048,-11.151 0.121,-10.909C0.192,-10.669 0.153,-10.442 0,-10.227" style="fill:rgb(36,31,33);fill-rule:nonzero;"/>
            </g>
            <g transform="matrix(0.528618,0,0,1.065,306.73,-545.478)">
                <path d="M0,-8.535L-15.674,7.515C-15.827,7.67 -16.023,7.739 -16.262,7.717C-16.503,7.696 -16.724,7.587 -16.928,7.386L-21.071,3.298C-22.555,1.834 -23.346,0.261 -23.445,-1.426C-23.547,-3.113 -22.755,-4.817 -21.07,-6.543L-14.082,-13.698C-12.381,-15.438 -10.691,-16.274 -9.012,-16.205C-7.334,-16.135 -5.754,-15.368 -4.272,-13.905L-0.125,-9.816C0.077,-9.615 0.186,-9.393 0.204,-9.144C0.223,-8.895 0.154,-8.693 0,-8.535M-2.371,-9.213L-5.671,-12.47C-6.734,-13.518 -7.851,-14.027 -9.028,-14.001C-10.204,-13.974 -11.372,-13.365 -12.538,-12.171L-19.525,-5.019C-20.688,-3.828 -21.269,-2.643 -21.268,-1.471C-21.264,-0.296 -20.731,0.814 -19.67,1.86L-16.368,5.119L-2.371,-9.213Z" style="fill:rgb(36,31,33);fill-rule:nonzero;"/>
            </g>
            <g transform="matrix(0.528618,0,0,1.065,296.58,-563.577)">
                <path d="M0,-12.286L-17.567,1.592C-17.979,1.917 -18.407,1.795 -18.855,1.226C-19.302,0.655 -19.318,0.207 -18.904,-0.119L-1.338,-13.997C-1.135,-14.161 -0.902,-14.203 -0.645,-14.126C-0.39,-14.048 -0.175,-13.896 0,-13.672C0.191,-13.429 0.288,-13.179 0.297,-12.92C0.306,-12.661 0.205,-12.45 0,-12.286" style="fill:rgb(36,31,33);fill-rule:nonzero;"/>
            </g>
            <g transform="matrix(0.528618,0,0,1.065,281.572,-598.041)">
                <path d="M0,18.733C-0.221,18.868 -0.457,18.925 -0.705,18.909C-0.954,18.891 -1.146,18.77 -1.28,18.544L-8.055,7.209C-8.192,6.984 -8.213,6.76 -8.121,6.537C-8.026,6.313 -7.869,6.136 -7.651,6.002C-7.409,5.857 -7.164,5.794 -6.916,5.81C-6.667,5.826 -6.475,5.947 -6.34,6.174L-3.519,10.895L14.592,-0.042C14.819,-0.178 15.052,-0.192 15.297,-0.083C15.54,0.027 15.735,0.204 15.881,0.448C16.039,0.712 16.106,0.974 16.08,1.233C16.057,1.49 15.932,1.686 15.707,1.824L-2.405,12.759L0.435,17.508C0.559,17.716 0.578,17.935 0.491,18.167C0.403,18.399 0.239,18.587 0,18.733" style="fill:rgb(36,31,33);fill-rule:nonzero;"/>
            </g>
            <g transform="matrix(0.528618,0,0,1.065,283.575,-621.272)">
                <path d="M0,6.605C-0.243,6.706 -0.53,6.712 -0.862,6.624C-1.194,6.536 -1.407,6.381 -1.499,6.159C-1.566,5.996 -1.518,5.739 -1.357,5.385L-0.83,4.166C-0.632,3.727 -0.543,3.124 -0.564,2.36C-0.581,1.596 -0.772,0.776 -1.133,-0.097C-1.729,-1.539 -2.549,-2.506 -3.592,-2.999C-4.636,-3.491 -5.837,-3.456 -7.189,-2.891C-8.098,-2.512 -8.792,-2.001 -9.274,-1.36C-9.756,-0.719 -10.046,-0.034 -10.147,0.697C-10.278,1.417 -10.332,2.202 -10.311,3.05L-10.257,5.597C-10.237,6.445 -10.304,7.242 -10.46,7.985C-10.614,8.727 -10.974,9.435 -11.538,10.11C-12.097,10.786 -12.875,11.327 -13.864,11.74C-14.921,12.182 -15.911,12.362 -16.836,12.284C-17.762,12.205 -18.556,11.913 -19.219,11.403C-19.88,10.894 -20.444,10.325 -20.905,9.697C-21.365,9.068 -21.757,8.368 -22.075,7.597C-22.586,6.359 -22.889,5.123 -22.985,3.889C-23.078,2.655 -22.864,1.93 -22.338,1.71C-22.097,1.611 -21.813,1.593 -21.488,1.66C-21.165,1.728 -20.955,1.883 -20.853,2.126C-20.803,2.249 -20.799,2.521 -20.844,2.944C-20.888,3.367 -20.876,3.927 -20.809,4.624C-20.739,5.322 -20.541,6.065 -20.215,6.857C-19.686,8.136 -18.977,9.078 -18.09,9.682C-17.199,10.288 -16.128,10.329 -14.877,9.807C-14.008,9.444 -13.381,8.892 -13.001,8.152C-12.621,7.408 -12.455,6.609 -12.502,5.747C-12.548,4.888 -12.572,3.946 -12.569,2.92C-12.566,1.896 -12.512,0.923 -12.409,-0.002C-12.304,-0.925 -11.905,-1.823 -11.21,-2.695C-10.518,-3.567 -9.515,-4.278 -8.201,-4.825C-6.13,-5.689 -4.339,-5.757 -2.824,-5.032C-1.311,-4.306 -0.147,-2.958 0.664,-0.99C1.392,0.776 1.631,2.415 1.375,3.926C1.119,5.436 0.66,6.328 0,6.605" style="fill:rgb(36,31,33);fill-rule:nonzero;"/>
            </g>
            <g transform="matrix(0.528618,0,0,1.065,266.311,-670.395)">
                <path d="M0,14.701C-0.256,14.741 -0.495,14.704 -0.718,14.593C-0.942,14.483 -1.072,14.297 -1.113,14.036L-3.082,0.962C-3.121,0.702 -3.055,0.487 -2.887,0.315C-2.716,0.146 -2.502,0.04 -2.249,0.002C-1.969,-0.04 -1.72,-0.005 -1.497,0.103C-1.274,0.215 -1.142,0.402 -1.104,0.661L-0.282,6.106L20.608,2.927C20.867,2.887 21.089,2.965 21.274,3.159C21.457,3.354 21.571,3.593 21.613,3.874C21.66,4.178 21.622,4.445 21.503,4.676C21.382,4.904 21.192,5.039 20.933,5.078L0.041,8.258L0.867,13.736C0.903,13.975 0.837,14.184 0.668,14.366C0.501,14.547 0.277,14.659 0,14.701" style="fill:rgb(36,31,33);fill-rule:nonzero;"/>
            </g>
            <g transform="matrix(0.528618,0,0,1.065,273.071,-703.016)">
                <path d="M0,13.953L-16.373,13.836C-16.897,13.831 -17.158,13.467 -17.152,12.741C-17.146,12.015 -16.881,11.655 -16.357,11.659L0.016,11.778C1.678,11.79 2.932,11.387 3.781,10.569C4.628,9.751 5.057,8.583 5.07,7.066C5.08,5.55 4.668,4.374 3.83,3.546C2.994,2.714 1.746,2.293 0.083,2.281L-16.288,2.163C-16.814,2.158 -17.073,1.794 -17.068,1.069C-17.063,0.343 -16.798,-0.017 -16.272,-0.014L0.099,0.105C2.525,0.122 4.299,0.768 5.418,2.04C6.535,3.312 7.084,4.992 7.07,7.079C7.056,9.17 6.48,10.841 5.345,12.097C4.209,13.353 2.426,13.97 0,13.953" style="fill:rgb(36,31,33);fill-rule:nonzero;"/>
            </g>
            <g transform="matrix(0.528618,0,0,1.065,273.825,-735.351)">
                <path d="M0,15.306L-10.033,13.621C-12.406,13.223 -14.046,12.318 -14.954,10.906C-15.862,9.495 -16.146,7.771 -15.808,5.732C-15.464,3.672 -14.669,2.112 -13.416,1.052C-12.164,-0.009 -10.718,-0.401 -9.079,-0.126C-8.345,-0.002 -8.038,0.417 -8.157,1.131C-8.272,1.826 -8.602,2.138 -9.145,2.07C-11.806,1.936 -13.367,3.255 -13.827,6.03C-14.34,9.11 -12.956,10.924 -9.676,11.474L0.355,13.16C2.016,13.438 3.324,13.245 4.276,12.58C5.23,11.917 5.829,10.847 6.075,9.372C6.318,7.898 6.099,6.691 5.412,5.751C4.728,4.811 3.552,4.202 1.89,3.923L-1.959,3.276L-2.684,7.635C-2.724,7.873 -2.847,8.047 -3.054,8.157C-3.259,8.268 -3.494,8.301 -3.753,8.257C-3.989,8.217 -4.19,8.112 -4.347,7.94C-4.509,7.768 -4.569,7.563 -4.53,7.324L-3.577,1.6C-3.491,1.079 -3.166,0.866 -2.607,0.961L2.247,1.775C4.643,2.178 6.293,3.085 7.201,4.496C8.109,5.909 8.39,7.643 8.049,9.704C7.706,11.764 6.879,13.312 5.563,14.352C4.248,15.389 2.394,15.707 0,15.306" style="fill:rgb(36,31,33);fill-rule:nonzero;"/>
            </g>
            <g transform="matrix(0.528618,0,0,1.065,279.957,-766.608)">
                <path d="M0,18.427L-21.213,11.376C-21.463,11.293 -21.623,11.135 -21.698,10.902C-21.769,10.669 -21.766,10.428 -21.683,10.177L-19.992,5.043C-19.678,4.084 -19.33,3.273 -18.951,2.611C-18.572,1.95 -18.093,1.373 -17.518,0.883C-16.941,0.391 -16.242,0.103 -15.418,0.018C-14.598,-0.069 -13.654,0.065 -12.595,0.416C-11.308,0.846 -10.298,1.448 -9.561,2.225C-8.827,3.001 -8.417,3.856 -8.331,4.786C-7.572,3.882 -6.688,3.291 -5.676,3.014C-4.662,2.736 -3.408,2.846 -1.914,3.343L-1.353,3.531C0.891,4.276 2.336,5.381 2.981,6.846C3.629,8.311 3.644,9.983 3.025,11.861L1.088,17.746C0.992,18.039 0.837,18.244 0.628,18.358C0.418,18.474 0.207,18.496 0,18.427M-11.79,12.25L-10.441,8.149C-9.953,6.667 -9.904,5.486 -10.292,4.603C-10.683,3.722 -11.603,3.039 -13.058,2.556C-14.408,2.108 -15.471,2.169 -16.248,2.745C-17.024,3.32 -17.647,4.318 -18.113,5.738L-19.421,9.713L-11.79,12.25ZM-0.453,16.019L1.043,11.482C2.004,8.56 0.948,6.587 -2.125,5.565L-2.655,5.39C-5.603,4.409 -7.559,5.379 -8.52,8.301L-10.014,12.841L-0.453,16.019Z" style="fill:rgb(36,31,33);fill-rule:nonzero;"/>
            </g>
            <g transform="matrix(0.528618,0,0,1.065,282.222,-795.257)">
                <path d="M0,16.862L-9.037,12.172C-11.174,11.064 -12.46,9.697 -12.894,8.074C-13.328,6.452 -13.068,4.712 -12.116,2.855C-11.16,1.001 -9.901,-0.22 -8.334,-0.804C-6.765,-1.388 -4.912,-1.124 -2.774,-0.015L6.264,4.675C8.421,5.793 9.716,7.165 10.15,8.788C10.584,10.411 10.325,12.15 9.371,14.006C8.418,15.862 7.155,17.082 5.588,17.666C4.021,18.25 2.157,17.982 0,16.862M0.995,14.928C3.969,16.471 6.166,15.856 7.594,13.083C9.018,10.309 8.245,8.151 5.271,6.609L-3.768,1.917C-6.721,0.385 -8.912,1.007 -10.336,3.779C-11.763,6.553 -10.996,8.706 -8.042,10.24L0.995,14.928Z" style="fill:rgb(36,31,33);fill-rule:nonzero;"/>
            </g>
            <g transform="matrix(0.528618,0,0,1.065,291.816,-821.456)">
                <path d="M0,21.055C-0.089,20.991 -0.144,20.936 -0.166,20.894L-14.028,2.059C-14.343,1.637 -14.295,1.144 -13.883,0.582C-13.47,0.02 -13.009,-0.181 -12.498,-0.02L9.535,7.76C9.551,7.773 9.58,7.786 9.618,7.802C9.66,7.82 9.688,7.833 9.704,7.845C9.906,7.996 9.994,8.237 9.966,8.572C9.941,8.909 9.837,9.199 9.656,9.448C9.408,9.784 9.097,9.894 8.719,9.778L3.757,7.987L-1.621,15.317L1.55,19.563C1.794,19.855 1.769,20.196 1.484,20.588C1.3,20.838 1.062,21.017 0.763,21.127C0.465,21.236 0.21,21.213 0,21.055M-2.79,13.747L1.921,7.322L-11.094,2.624L-2.79,13.747Z" style="fill:rgb(36,31,33);fill-rule:nonzero;"/>
            </g>
            <g transform="matrix(0.528618,0,0,1.065,291.893,-836.946)">
                <path d="M0,-0.357C-0.185,-0.54 -0.301,-0.754 -0.345,-1C-0.393,-1.246 -0.323,-1.462 -0.137,-1.649L9.095,-11.07C9.28,-11.257 9.49,-11.334 9.729,-11.3C9.966,-11.265 10.177,-11.156 10.361,-10.973C10.56,-10.776 10.681,-10.555 10.729,-10.309C10.773,-10.063 10.705,-9.846 10.521,-9.658L6.676,-5.735L21.727,9.167C21.915,9.352 21.987,9.577 21.942,9.844C21.896,10.107 21.775,10.341 21.577,10.545C21.361,10.764 21.127,10.895 20.872,10.934C20.617,10.977 20.394,10.903 20.208,10.719L5.156,-4.185L1.288,-0.238C1.12,-0.066 0.912,0.007 0.666,-0.02C0.422,-0.048 0.198,-0.159 0,-0.357" style="fill:rgb(36,31,33);fill-rule:nonzero;"/>
            </g>
            <g transform="matrix(0.528618,0,0,1.065,410.366,-555.01)">
                <path d="M0,-295.354C-1.286,-295.354 -2.24,-294.831 -2.199,-293.689C-2.139,-291.979 -0.539,-289.33 1.184,-289.255C1.257,-289.252 1.328,-289.265 1.4,-289.27C1.526,-289.281 1.653,-289.304 1.778,-289.345C1.842,-289.366 1.907,-289.386 1.971,-289.415C2.16,-289.501 2.348,-289.61 2.533,-289.776C2.533,-289.776 6.299,-292.601 3.742,-294.195C3.539,-294.321 3.325,-294.42 3.114,-294.526L3.114,-294.53C2.07,-295.057 0.948,-295.354 0,-295.354M-45.32,-232.277C-44.945,-231.383 -42.823,-230.982 -41.853,-230.927L-41.741,-230.913C-41.425,-230.847 -41.031,-230.747 -40.589,-230.635C-38.72,-230.163 -35.595,-229.373 -34.201,-230.217C-33.867,-230.421 -33.665,-230.706 -33.566,-231.117C-32.978,-233.563 -34.425,-234.488 -37.899,-235.634C-40.456,-236.478 -40.185,-239.003 -39.531,-241.699C-41.687,-240.618 -43.986,-239.733 -46.446,-239.087C-46.357,-238.719 -46.234,-238.35 -46.015,-237.949C-45.255,-236.555 -45.355,-235.247 -45.44,-234.194C-45.495,-233.457 -45.546,-232.82 -45.32,-232.277M12.167,-185.109C-11.146,-208.538 -42.16,-221.44 -75.165,-221.44C-124.683,-221.44 -164.969,-180.952 -164.969,-131.185C-164.969,-108.359 -156.483,-86.58 -141.075,-69.858L-140.993,-69.935L-141.006,-69.791C-141.006,-69.791 -133.296,-59.583 -122.81,-54.627C-117.845,-52.279 -104.815,-44.467 -93.425,-45.905C-76.911,-42.236 -56.602,-52.709 -50.379,-58.798C-44.141,-64.905 -48.72,-62.695 -48.72,-62.695C-63.405,-54.154 -74.543,-51.562 -82.533,-51.409C-82.364,-51.59 -82.191,-51.755 -82.026,-51.945C-68.161,-67.901 -76.067,-65.125 -65.639,-68.518C-55.212,-71.914 -56.417,-69.105 -54.808,-74.478C-53.205,-79.854 -57.097,-80.76 -52.359,-88.569C-47.62,-96.375 -50.732,-95.734 -54.633,-98.19C-58.535,-100.645 -61.28,-103.881 -62.397,-101.788C-63.515,-99.695 -63.288,-95.939 -60.605,-94.162C-57.927,-92.388 -60.241,-86.709 -62.84,-83.922C-63.738,-82.956 -65.036,-82.201 -66.586,-81.691C-67.253,-81.407 -67.938,-81.164 -68.636,-80.997C-70.668,-80.532 -72.791,-80.526 -74.846,-80.851C-75.879,-81.009 -76.893,-81.252 -77.89,-81.558C-78.84,-81.879 -79.727,-82.031 -80.7,-82.063C-82.627,-82.116 -84.604,-81.738 -86.662,-81.538L-86.569,-81.554C-87.338,-81.407 -87.96,-81.401 -88.64,-81.407C-89.307,-81.422 -89.965,-81.476 -90.615,-81.571C-91.918,-81.759 -93.185,-82.067 -94.426,-82.452C-96.909,-83.222 -99.246,-84.355 -101.472,-85.632C-103.691,-86.928 -105.788,-88.408 -107.772,-90.017C-109.74,-91.642 -111.63,-93.354 -113.384,-95.201C-111.389,-93.624 -109.389,-92.069 -107.3,-90.655C-105.221,-89.225 -103.088,-87.884 -100.871,-86.726C-98.666,-85.55 -96.363,-84.57 -94.003,-83.849C-92.821,-83.495 -91.62,-83.215 -90.414,-83.055C-89.808,-82.976 -89.204,-82.916 -88.605,-82.899C-88.022,-82.88 -87.37,-82.903 -86.892,-82.988L-86.819,-83.003L-86.799,-83.004C-84.824,-83.181 -82.778,-83.547 -80.636,-83.41C-79.587,-83.351 -78.457,-83.123 -77.498,-82.742C-76.571,-82.403 -75.621,-82.124 -74.654,-81.925C-72.772,-81.526 -70.827,-81.393 -68.907,-81.631C-68.741,-85.02 -70.741,-86.633 -66.951,-92.874C-62.444,-100.31 -65.403,-99.695 -69.115,-102.034C-72.831,-104.373 -75.443,-107.454 -76.507,-105.461C-77.57,-103.469 -77.356,-99.891 -74.804,-98.199C-72.254,-96.511 -74.457,-91.106 -76.93,-88.452C-79.403,-85.801 -84.818,-84.607 -91.074,-86.791C-93.126,-87.508 -95.271,-87.321 -97.431,-87.072C-97.56,-87.262 -97.688,-87.447 -97.815,-87.65C-103.817,-97.229 -100.707,-106.395 -110.274,-103.041C-116.604,-111.01 -120.066,-120.878 -120.066,-131.185C-120.066,-156.068 -99.923,-176.313 -75.165,-176.313C-31.837,-176.313 3.415,-140.885 3.415,-97.338C3.415,-53.793 -31.837,-18.364 -75.165,-18.364C-137.062,-18.364 -187.42,-68.976 -187.42,-131.185C-187.42,-178.526 -158.244,-219.121 -117.026,-235.837C-106.595,-239.601 -97.316,-240.608 -83.209,-239.115C-72.191,-237.95 -65.351,-238.519 -61.736,-239.12C-61.541,-239.098 -61.345,-239.079 -61.149,-239.057C-61.242,-239.65 -61.375,-240.19 -61.536,-240.826C-61.701,-241.511 -61.734,-242.212 -61.683,-242.89C-61.592,-244.254 -61.107,-245.461 -61.174,-246.649C-61.232,-247.849 -62.031,-248.934 -62.953,-249.798C-62.429,-249.436 -61.927,-249.027 -61.503,-248.523C-61.077,-248.025 -60.758,-247.398 -60.632,-246.722C-60.383,-245.349 -60.773,-244.055 -60.707,-242.865C-60.694,-242.268 -60.585,-241.686 -60.415,-241.14C-60.217,-240.573 -59.991,-239.901 -59.842,-239.262C-59.512,-237.968 -59.439,-236.589 -59.303,-235.409C-59.223,-234.819 -59.094,-234.285 -58.875,-233.781C-58.766,-233.522 -58.651,-233.32 -58.481,-233.012C-58.3,-232.687 -58.149,-232.34 -58.032,-231.979C-57.533,-230.515 -57.79,-229.004 -57.808,-227.878C-57.818,-227.313 -57.747,-226.817 -57.573,-226.485C-57.464,-226.249 -57.091,-225.942 -56.627,-225.713C-55.696,-225.248 -54.47,-224.945 -53.355,-224.801L-53.287,-224.792L-53.242,-224.781C-51.564,-224.39 -50.016,-223.993 -48.449,-223.813C-47.674,-223.716 -46.907,-223.673 -46.205,-223.743C-45.503,-223.811 -44.885,-224.016 -44.546,-224.343C-44.372,-224.501 -44.243,-224.711 -44.16,-224.94C-44.116,-225.04 -44.075,-225.244 -44.04,-225.41C-44.007,-225.58 -43.979,-225.752 -43.966,-225.915C-43.903,-226.584 -43.997,-227.163 -44.313,-227.666C-44.938,-228.699 -46.439,-229.406 -47.928,-229.971L-49.094,-230.411C-49.576,-230.591 -50.074,-230.876 -50.476,-231.304C-50.881,-231.728 -51.136,-232.275 -51.257,-232.788C-51.381,-233.307 -51.397,-233.803 -51.375,-234.271C-51.324,-235.21 -51.116,-236.062 -50.897,-236.893C-50.673,-237.723 -50.419,-238.527 -50.175,-239.328C-49.933,-240.13 -49.681,-240.921 -49.46,-241.721C-49.243,-242.495 -49.069,-243.373 -48.72,-244.174C-48.375,-244.973 -47.901,-245.753 -47.207,-246.309C-46.516,-246.862 -45.584,-247.102 -44.77,-246.879C-45.61,-246.973 -46.417,-246.598 -46.955,-246.026C-47.508,-245.455 -47.844,-244.705 -48.067,-243.937C-48.306,-243.163 -48.379,-242.371 -48.523,-241.511C-48.635,-240.839 -48.775,-240.177 -48.918,-239.516C-40.835,-241.054 -34.338,-245.016 -29.105,-250.355C-20.03,-259.62 -24.781,-258.333 -23.313,-268.574C-21.845,-278.817 -17.713,-284.504 -17.398,-286.157C-17.191,-287.241 -16.852,-289.241 -15.317,-289.718C-15.627,-289.741 -15.937,-289.758 -16.248,-289.806C-16.72,-289.873 -17.188,-289.981 -17.659,-290.124C-18.124,-290.281 -18.595,-290.46 -19.032,-290.86C-19.139,-290.961 -19.233,-291.096 -19.309,-291.249C-19.353,-291.346 -19.357,-291.362 -19.385,-291.441C-19.41,-291.518 -19.431,-291.594 -19.443,-291.665C-19.503,-291.953 -19.488,-292.282 -19.363,-292.567C-19.102,-293.148 -18.559,-293.452 -18.067,-293.573C-17.05,-293.824 -16.071,-293.581 -15.203,-293.221C-16.138,-293.303 -17.095,-293.31 -17.89,-293.013C-18.275,-292.857 -18.607,-292.612 -18.705,-292.301C-18.759,-292.15 -18.769,-291.987 -18.729,-291.817C-18.719,-291.772 -18.706,-291.737 -18.694,-291.701C-18.686,-291.67 -18.646,-291.575 -18.639,-291.566C-18.608,-291.512 -18.569,-291.451 -18.504,-291.392C-18.256,-291.141 -17.837,-290.95 -17.426,-290.795C-17.011,-290.627 -16.567,-290.508 -16.128,-290.378C-15.237,-290.142 -14.328,-289.919 -13.409,-289.697C-13.502,-289.69 -13.596,-289.696 -13.69,-289.691C-13.138,-289.55 -12.509,-289.295 -11.768,-288.863C-7.055,-286.12 -5.962,-287.377 -5.962,-287.377C-2.605,-287.097 -3.07,-286.576 0.029,-288.792C0.037,-288.798 0.044,-288.804 0.051,-288.81C-1.647,-289.636 -2.889,-292.002 -2.948,-293.663C-2.971,-294.299 -2.767,-294.859 -2.361,-295.281C-1.842,-295.821 -1.025,-296.106 0,-296.106C0.82,-296.106 1.727,-295.902 2.609,-295.568C1.662,-296.932 -0.447,-299.823 -2.601,-301.783C-5.507,-304.423 -5.959,-305.244 -5.603,-307.747C-5.247,-310.247 -5.632,-311.424 -7.454,-313.365C-9.274,-315.307 -11.841,-319.718 -19.334,-321.285C-23.307,-322.116 -27.332,-321.563 -31.126,-319.097L-31.132,-319.099C-36.059,-318.52 -40.047,-314.044 -41.527,-312.161C-41.649,-311.98 -41.792,-311.808 -41.908,-311.625C-42.741,-310.356 -43.427,-309.044 -43.766,-307.646C-44.103,-306.25 -44.021,-304.852 -43.129,-303.831C-42.182,-302.6 -41.308,-301.321 -40.468,-300.034C-38.781,-297.487 -37.294,-294.757 -35.128,-292.893C-34.057,-291.963 -32.788,-291.344 -31.405,-291.117C-30.098,-290.853 -28.838,-291.341 -27.863,-292.304C-26.881,-293.26 -26.191,-294.574 -25.714,-295.946C-25.242,-297.329 -24.967,-298.795 -24.862,-300.274C-24.759,-301.755 -24.843,-303.251 -25.095,-304.717C-25.222,-305.45 -25.398,-306.179 -25.626,-306.883C-25.857,-307.586 -26.151,-308.321 -26.361,-309.067C-26.795,-310.558 -27.099,-312.099 -27.133,-313.658C-27.153,-315.19 -26.938,-316.851 -25.963,-318.067C-26.403,-317.437 -26.592,-316.678 -26.7,-315.936C-26.808,-315.188 -26.807,-314.43 -26.738,-313.68C-26.595,-312.177 -26.192,-310.711 -25.668,-309.297C-25.414,-308.585 -25.108,-307.908 -24.82,-307.173C-24.538,-306.434 -24.313,-305.681 -24.137,-304.912C-23.787,-303.376 -23.655,-301.794 -23.7,-300.216C-23.75,-298.639 -23.983,-297.055 -24.473,-295.53C-24.967,-294.014 -25.682,-292.513 -26.869,-291.295C-27.459,-290.69 -28.192,-290.178 -29.031,-289.878C-29.861,-289.572 -30.806,-289.52 -31.642,-289.668C-33.275,-289.917 -34.852,-290.676 -36.093,-291.744C-37.341,-292.812 -38.303,-294.094 -39.18,-295.377C-40.054,-296.666 -40.854,-297.975 -41.659,-299.264C-42.179,-300.1 -42.715,-300.918 -43.263,-301.725C-47.017,-293.671 -48.97,-289.534 -55.346,-289.562C-63.079,-289.595 -63.737,-288.383 -75.165,-289.13L-75.165,-289.132L-75.195,-289.132C-75.266,-289.137 -75.326,-289.14 -75.397,-289.144C-75.397,-289.144 -75.401,-289.131 -75.401,-289.129C-117.32,-289.068 -156.702,-272.655 -186.315,-242.893C-215.983,-213.075 -232.322,-173.403 -232.322,-131.185C-232.322,-88.966 -215.983,-49.293 -186.315,-19.477C-156.646,10.342 -117.172,26.762 -75.165,26.762C-42.16,26.762 -11.146,13.859 12.167,-9.569C35.48,-32.997 48.316,-64.167 48.316,-97.338C48.316,-130.51 35.48,-161.68 12.167,-185.109M-12.902,-308.885C-12.847,-308.476 -12.658,-306.983 -14.692,-306.868C-17.133,-306.729 -17.572,-309.013 -17.572,-309.013C-15.26,-310.806 -12.902,-308.885 -12.902,-308.885M-34.9,-254.193C-34.157,-255.327 -33.516,-256.524 -33.024,-257.78C-32.012,-260.288 -31.614,-263 -31.63,-265.774C-31.333,-264.418 -31.231,-263.005 -31.359,-261.604C-31.476,-260.201 -31.814,-258.815 -32.329,-257.501C-32.86,-256.192 -33.56,-254.954 -34.425,-253.851C-35.289,-252.745 -36.302,-251.752 -37.469,-251.003C-36.486,-251.978 -35.654,-253.067 -34.9,-254.193" style="fill-rule:nonzero;"/>
            </g>
            <g transform="matrix(0.528618,0,0,1.065,426.495,-847.835)">
                <path d="M0,-22.895C0.149,-23.107 0.341,-23.255 0.574,-23.343C0.808,-23.426 1.032,-23.394 1.247,-23.243L12.004,-15.631C12.219,-15.478 12.328,-15.281 12.333,-15.041C12.339,-14.798 12.266,-14.571 12.117,-14.359C11.956,-14.13 11.757,-13.971 11.525,-13.887C11.29,-13.799 11.066,-13.833 10.853,-13.985L6.373,-17.156L-5.791,0.207C-5.944,0.424 -6.153,0.531 -6.42,0.531C-6.686,0.529 -6.937,0.445 -7.169,0.283C-7.419,0.105 -7.585,-0.106 -7.668,-0.352C-7.748,-0.599 -7.715,-0.831 -7.562,-1.046L4.602,-18.409L0.095,-21.598C-0.102,-21.737 -0.208,-21.932 -0.22,-22.178C-0.235,-22.427 -0.162,-22.664 0,-22.895" style="fill:rgb(36,31,33);fill-rule:nonzero;"/>
            </g>
            <g transform="matrix(0.528618,0,0,1.065,318.107,-879.698)">
                <path d="M0,26.353L-11.643,7.226C-11.78,7.001 -11.803,6.776 -11.708,6.552C-11.615,6.326 -11.456,6.145 -11.232,6.007L-1.267,-0.12C-0.801,-0.407 -0.403,-0.278 -0.073,0.265C0.077,0.509 0.144,0.757 0.132,1.01C0.118,1.263 0,1.458 -0.223,1.595L-9.18,7.102L-4.471,14.838L-0.076,12.136C0.149,11.998 0.368,11.973 0.585,12.057C0.804,12.142 0.987,12.306 1.136,12.55C1.443,13.055 1.365,13.452 0.899,13.739L-3.495,16.441L1.25,24.233L10.204,18.725C10.41,18.6 10.627,18.581 10.862,18.668C11.095,18.758 11.287,18.923 11.436,19.166C11.777,19.73 11.714,20.156 11.249,20.441L1.287,26.568C1.062,26.706 0.826,26.76 0.58,26.732C0.329,26.704 0.138,26.578 0,26.353" style="fill:rgb(36,31,33);fill-rule:nonzero;"/>
            </g>
            <g transform="matrix(0.528618,0,0,1.065,330.555,-891.72)">
                <path d="M0,24.529L-8.555,3.749C-8.637,3.546 -8.623,3.337 -8.508,3.124C-8.398,2.911 -8.21,2.749 -7.946,2.639L-2.579,0.408C-0.66,-0.391 1.092,-0.507 2.674,0.061C4.257,0.628 5.508,2.029 6.429,4.264L10.241,13.526C11.169,15.782 11.273,17.671 10.553,19.195C9.831,20.722 8.508,21.883 6.589,22.682L1.223,24.913C0.96,25.024 0.712,25.036 0.476,24.955C0.243,24.874 0.085,24.733 0,24.529M1.55,22.6L5.824,20.823C7.199,20.252 8.103,19.418 8.539,18.32C8.974,17.224 8.877,15.902 8.24,14.359L4.428,5.095C3.793,3.552 2.936,2.551 1.861,2.094C0.784,1.638 -0.44,1.695 -1.815,2.266L-6.089,4.044L1.55,22.6Z" style="fill:rgb(36,31,33);fill-rule:nonzero;"/>
            </g>
            <g transform="matrix(0.528618,0,0,1.065,344.588,-899.612)">
                <path d="M0,22.291L-5.807,0.613C-5.943,0.104 -5.665,-0.244 -4.972,-0.435C-4.278,-0.624 -3.862,-0.464 -3.726,0.045L2.083,21.723C2.151,21.978 2.1,22.208 1.929,22.414C1.761,22.619 1.537,22.759 1.265,22.834C0.969,22.915 0.703,22.909 0.464,22.814C0.223,22.721 0.07,22.546 0,22.291" style="fill:rgb(36,31,33);fill-rule:nonzero;"/>
            </g>
            <g transform="matrix(0.528618,0,0,1.065,351.091,-883.117)">
                <path d="M0,-18.924C-0.036,-19.182 0.003,-19.42 0.117,-19.644C0.227,-19.867 0.415,-19.998 0.674,-20.034L13.706,-21.856C13.966,-21.894 14.18,-21.825 14.347,-21.652C14.516,-21.478 14.617,-21.263 14.652,-21.007C14.69,-20.727 14.654,-20.477 14.541,-20.255C14.429,-20.031 14.241,-19.9 13.982,-19.864L8.554,-19.105L11.469,1.927C11.503,2.189 11.426,2.411 11.23,2.593C11.034,2.776 10.795,2.887 10.514,2.927C10.211,2.97 9.946,2.928 9.719,2.805C9.492,2.681 9.359,2.489 9.324,2.227L6.41,-18.804L0.951,-18.041C0.712,-18.008 0.504,-18.077 0.325,-18.249C0.147,-18.421 0.039,-18.646 0,-18.924" style="fill:rgb(36,31,33);fill-rule:nonzero;"/>
            </g>
            <g transform="matrix(0.528618,0,0,1.065,366.722,-903.642)">
                <path d="M0,17.165C0.003,16.901 0.111,16.634 0.323,16.361C0.533,16.089 0.759,15.954 1.001,15.957C1.175,15.959 1.392,16.105 1.652,16.392L2.559,17.36C2.882,17.715 3.398,18.034 4.107,18.317C4.815,18.601 5.638,18.747 6.579,18.758C8.131,18.775 9.338,18.399 10.201,17.628C11.063,16.858 11.501,15.735 11.519,14.262C11.529,13.273 11.337,12.43 10.939,11.733C10.543,11.036 10.029,10.498 9.4,10.117C8.791,9.713 8.096,9.354 7.311,9.037L4.961,8.087C4.176,7.771 3.475,7.394 2.856,6.958C2.239,6.524 1.732,5.913 1.336,5.129C0.939,4.343 0.749,3.412 0.759,2.335C0.772,1.186 0.998,0.199 1.433,-0.625C1.869,-1.449 2.45,-2.067 3.178,-2.48C3.903,-2.891 4.645,-3.187 5.403,-3.365C6.158,-3.544 6.951,-3.63 7.783,-3.62C9.117,-3.605 10.367,-3.398 11.532,-3.001C12.7,-2.603 13.278,-2.118 13.271,-1.546C13.268,-1.282 13.172,-1.013 12.984,-0.741C12.795,-0.469 12.569,-0.334 12.308,-0.337C12.176,-0.338 11.925,-0.442 11.555,-0.65C11.185,-0.858 10.67,-1.067 10.004,-1.28C9.338,-1.49 8.58,-1.6 7.728,-1.609C6.35,-1.625 5.208,-1.343 4.305,-0.758C3.401,-0.176 2.942,0.799 2.927,2.162C2.916,3.107 3.175,3.901 3.705,4.545C4.232,5.187 4.901,5.659 5.706,5.951C6.512,6.247 7.383,6.598 8.319,7.004C9.254,7.411 10.125,7.844 10.929,8.304C11.734,8.765 12.397,9.486 12.923,10.47C13.449,11.455 13.702,12.661 13.686,14.09C13.66,16.344 13.019,18.027 11.758,19.137C10.499,20.251 8.808,20.795 6.686,20.77C4.783,20.748 3.192,20.322 1.911,19.491C0.629,18.66 -0.006,17.884 0,17.165" style="fill:rgb(36,31,33);fill-rule:nonzero;"/>
            </g>
        </g>
    </g>
</svg>
